/* XPM */
static char *_b19da6d63e8420dd7bcb3d7d8524804X6y0JOHS3lfUJNLJ[] = {
/* columns rows colors chars-per-pixel */
"50 50 227 2 ",
"   c #020101",
".  c #0C0200",
"X  c #0A0900",
"o  c #01020A",
"O  c #08080A",
"+  c #120100",
"@  c #160600",
"#  c #171818",
"$  c #291B00",
"%  c #2C2500",
"&  c #332500",
"*  c #3B2300",
"=  c #262418",
"-  c #181D21",
";  c #262826",
":  c #282B32",
">  c #3D3C3C",
",  c #363537",
"<  c #3C3A2C",
"1  c #442400",
"2  c #413F19",
"3  c #4E411F",
"4  c #734D06",
"5  c #655500",
"6  c #695800",
"7  c #6D4E17",
"8  c #75511B",
"9  c #6E5111",
"0  c #7B6B05",
"q  c #7D7609",
"w  c #7F6E12",
"e  c #4D4723",
"r  c #47423C",
"t  c #6D5526",
"y  c #785F35",
"u  c #785420",
"i  c #7C622E",
"p  c #7B6636",
"a  c #3C3B41",
"s  c #483E45",
"d  c #3F4342",
"f  c #424241",
"g  c #484549",
"h  c #575857",
"j  c #5F645D",
"k  c #666358",
"l  c #6B6241",
"z  c #5B6160",
"x  c #636361",
"c  c #787A6C",
"v  c #7C7D78",
"b  c #847805",
"n  c #856F12",
"m  c #826231",
"M  c #856439",
"N  c #9A7436",
"B  c #8D7829",
"V  c #8E7D4F",
"C  c #8A7E6A",
"Z  c #807D78",
"A  c #7C8278",
"S  c #B28619",
"D  c #A78814",
"F  c #AEA11F",
"G  c #998630",
"H  c #A89227",
"J  c #ADA127",
"K  c #B5A724",
"L  c #B5B229",
"P  c #B3B234",
"I  c #B0AB33",
"U  c #CC9919",
"Y  c #D2981D",
"T  c #D2AE17",
"R  c #E7BA1F",
"E  c #CC9D22",
"W  c #CC992B",
"Q  c #D19A22",
"!  c #D2952D",
"~  c #D09D33",
"^  c #D4A22A",
"/  c #DEBB23",
"(  c #CFA639",
")  c #DBA739",
"_  c #C8AC34",
"`  c #E4AC2E",
"'  c #E6BF24",
"]  c #E7B929",
"[  c #ECBD3A",
"{  c #D1CF1A",
"}  c #EDDC0D",
"|  c #F0DF0C",
" . c #EAD818",
".. c #F2DC12",
"X. c #F3D71B",
"o. c #F5DB1B",
"O. c #F5D71A",
"+. c #F0CC1E",
"@. c #F4E50B",
"#. c #FAF405",
"$. c #FBF50C",
"%. c #FCF90A",
"&. c #F4F506",
"*. c #EFEA16",
"=. c #F5E415",
"-. c #F9E414",
";. c #F6E21B",
":. c #F8EB19",
">. c #FDF213",
",. c #F3F31E",
"<. c #F9F819",
"1. c #CCCA2B",
"2. c #EACA27",
"3. c #F4CA28",
"4. c #ECD627",
"5. c #F2D724",
"6. c #F4DA23",
"7. c #FADC25",
"8. c #F4D52C",
"9. c #F9D92A",
"0. c #F9D628",
"q. c #E7C535",
"w. c #F5C636",
"e. c #EDD136",
"r. c #EAD43C",
"t. c #E5D834",
"y. c #F7D937",
"u. c #F8E724",
"i. c #F1F422",
"p. c #FBF928",
"a. c #F9F626",
"s. c #F6E735",
"d. c #F2F135",
"f. c #F3F438",
"g. c #EEEC34",
"h. c #9E8D5F",
"j. c #A5884B",
"k. c #A88A56",
"l. c #B28454",
"z. c #BBAD42",
"x. c #88836C",
"c. c #858778",
"v. c #BFB97D",
"b. c #D79E47",
"n. c #CF9943",
"m. c #D5A448",
"M. c #DCAA55",
"N. c #D7A956",
"B. c #C9A547",
"V. c #DCB66A",
"C. c #D2AD6E",
"Z. c #E2B961",
"A. c #E5AA4E",
"S. c #DCD24E",
"D. c #ECD545",
"F. c #EAD549",
"G. c #F4DD49",
"H. c #EFD452",
"J. c #FBE44A",
"K. c #FAE846",
"L. c #F6F544",
"P. c #FBE555",
"I. c #F2F252",
"U. c #F5DE65",
"Y. c #EFE363",
"T. c #FAE568",
"R. c #F4F16E",
"E. c #FEF768",
"W. c #F4EE75",
"Q. c #F8EA7B",
"!. c #F4F170",
"~. c #FDF678",
"^. c #EDE07A",
"/. c #7F7D82",
"(. c #817C87",
"). c #7D8182",
"_. c #878788",
"`. c #9E9E9D",
"'. c #949496",
"]. c #8E8E90",
"[. c #9FA09B",
"{. c #A5A69D",
"}. c #9E9EA0",
"|. c #BEBDBD",
" X c #BFBFB7",
".X c #AEAEAD",
"XX c #C5BFB8",
"oX c #C1BCA8",
"OX c #E9DE8E",
"+X c #FFEA81",
"@X c #F7EC87",
"#X c #FEF286",
"$X c #FEF88A",
"%X c #FEF695",
"&X c #F0E799",
"*X c #C5C2AB",
"=X c #FFFFAA",
"-X c #FEFFB4",
";X c #FFFFBD",
":X c #F9EEAC",
">X c #D2CB97",
",X c #BEBDC2",
"<X c #D8D7D6",
"1X c #C5C3C7",
"2X c #E1DDDC",
"3X c #DCE1DD",
"4X c #FFFFC3",
"5X c #FFFFC9",
"6X c #FFFED4",
"7X c #FFFEDD",
"8X c #FBF7D2",
"9X c #DFDAE1",
"0X c #E1DCE3",
"qX c #FFFFE2",
"wX c #FFFEEC",
"eX c #FFF7E1",
"rX c #F6FCF5",
"tX c #FCFDF5",
"yX c #FBF6FC",
"uX c #F5FBFB",
"iX c #FFFEFF",
"pX c #FEFFFF",
"aX c #FFFFFF",
"sX c #FEFEFE",
"dX c #FEFEFD",
"fX c #F5F6F6",
"gX c #E3E1E6",
/* pixels */
"iXiXdXdXiXiXiXiXsXiXsXiXiXiXdXuXtXdX|.  o   .       o o       XXtXtXiXsXiXiXdXdXdXrXdXtXiXiXiXrXiXiX",
"iXiXdXdXiXiXiXiXiXiXtXdXiXfXiXiXtXdX|.  O     . o   o          XtXdXiXiXdXiXsXdXdXrXdXiXiXyXdXiXiXiX",
"iXiXdXiXiXiXdXdXsXiXdXtXtXdXtXdXrXdX|.      O     o     O     1XiXdXyXyXiXiXiXiXrXrXtXiXiXiXiXrXiXiX",
"iXiXiXiXiXiXiXdXiXtXtXtX].# ; ; ; # h 3X<X<X<X0X9X<X2X<X<X<XgXh - : : : # ].sXyXiXdXiXiXsXiXiXiXiXiX",
"dXdXiXiXiXiXiXiXiXsXdXtX/.o         > iXiXyXdXuXdXiXtXtXdXiXiXd           Z iXuXdXtXdXiXiXiXiXdXiXiX",
"dXdXiXiXiXiXiXiXiXiXsXiX(.o         < wX7X7X7X7X6X6X5X5X6X6X7X2   X . + + x.iXdXdXdXdXsXiXsXdXdXiXiX",
"dXiXiXiXiXiXiXdXiX].> > _.1X,X|.XX*X>XOXQ.U.Y.Y.T.T.U.T.U.T.U._ J J H B G t r , _.fXyXiXiXiXdXdXiXiX",
"dXiXiXiXiXiXdXtXiXh     _.iXiXdXtX6X-XS.r.8.t.t.e.e.r.e.8.5.8.y.y.J.[ ( Z.7     h iXyXiXtXiXdXdXiXiX",
"dXiXiXiXiXiXdXdXdXx     _.iXtXwXqX4X$XD.4.5.t.D.D.r.F.r.X...6.5.8.y.` ~ M.7 .   k tXrXuXdXdXdXdXiXiX",
"iXiXiXiXiXiXtXrXrXz o o _.dXtX8X&XQ.P.s.u.s.~.$X#X#X%X~.s.@.:.o.5.y.` ! M.7 .   h dXrXdXdXdXdXdXiXiX",
"iXtXdXiXiXiXiXrXdXh o o v wXqX:XS.4.;.a.:.K.4XeX7XqXeX;XL.<.<.@.o.y.` W M.8 .   x dXuXdXiXtXiXiXiXiX",
"tXiXiXdXiXiXiXrXrXz o   x.6X4X$X4.} } a.s.E.4XqX7X7XqX4XR.f.d.*.} 6./ E m.4 + . k iXdXdXiXiXiXiXiXiX",
"dXiXdXiXiXyX`.v c.A _.c v.%XQ.P.*.*.g.E.$X$X~.~.~.W.#X@XG q b 1.u.-.2./ q.D 6 t l c.v `.tXiXiXiXiXiX",
"iXiXdXdXsXiX>     {.iXqX&XS.r.4.<.,.E.%X;X=XI.i.g.t.t.S.$ . X L p.>.u.8.y.q.( V.p .   , iXtXiXiXiXiX",
"iXiXdXdXyXiXa     {.dX7X@XD.s.;.<.i.R.-X6X-Xf.<.a. .4.H.* + . L a.#.-.X.9.' Q N.y + . s sXiXrXrXiXiX",
"iXiXdXiXsXsXg     `.iXqX+Xe.X.-.>.i.W.4X7X-Xd.&.>.=.o.D.$ . X P p.#.-.X.0.R Q M.M + . s iXdXrXrXiXiX",
"iXiXiXiXiXiXf     `.iX7X+Xe.6.=.$.i.!.;X7X-Xd.#.>.| o.D.%   X P p.#.-.X.0.' Q M.m .   f iXiXdXiXiXiX",
"dXiXiXiXiXiXf     `.iX7X+Xe.5.=.$.i.!.;X7X-Xd.#.$.| o.D.%   X P p.#.-.X.9.' Q M.m .   d iXiXiXiXiXiX",
"dXiXiXiXiXiXf     `.iX7X+Xe.5.=.$.i.!.;X7X-Xd.#.$.| o.D.%   X P p.#.-.X.9.' Q M.m .   d iXiXiXiXiXiX",
"dXiXiXiXiXiXf     `.iX7X+Xe.5.=.$.i.!.;X7X-Xd.#.$.| o.D.%   X P p.#.-.X.9.' Q M.m .   d iXiXiXiXiXiX",
"dXiXiXiXiXiXf     `.iX7X+Xe.5.=.$.i.!.;X7X-Xd.#.$.| o.D.%   X P p.#.-.X.9.' Q M.m .   d iXiXiXiXiXiX",
"dXiXiXiXiXiXf     `.iX7X+Xe.5.=.$.i.R.;X7X-Xd.#.$.| o.D.%   X P p.#.-.X.9.' Q M.m .   f iXiXiXiXiXiX",
"dXiXiXiXiXiXf     `.iX7X+Xe.5.=.%.i.R.;X7X-Xd.#.$.| o.D.%   X P p.#.-.X.9.' Q M.m .   f iXiXiXiXiXiX",
"dXiXiXiXiXiXf     `.iX7X+Xe.5.=.%.,.R.;X7X-Xd.#.$.| o.D.%   X P p.#.-.X.9.' Q M.m .   d iXiXiXiXiXiX",
"dXiXiXiXiXiXr     `.iX7X+Xe.5.=.%.,.R.;X7X-Xd.%.>.| o.D.%   X P p.#.-.X.9.' Q M.m .   d iXiXiXiXiXiX",
"dXiXiXiXiXiXf     `.iX7X+Xe.5.=.%.i.R.;X7X-Xg.#.>.| o.D.%   X P p.#.-.X.9.' Q M.m .   d iXdXiXiXiXiX",
"dXiXiXiXiXiXf     `.iX7X+Xe.5.=.%.i.R.;X7X-Xd.%.>.| o.D.%   X P p.#.-.X.9.' Q M.m .   d iXiXiXiXiXiX",
"dXiXiXiXiXiXf     `.iX7X+Xe.5.=.%.i.R.;XqX-Xd.$.>.} o.D.%   X P p.#.-.X.9.' Q M.m .   d iXiXiXiXiXiX",
"dXiXiXiXiXiXf     `.iX7X+Xe.5.=.$.i.R.;XqX-Xd.%.>...o.D.%   X P p.#.-.X.9.' Q M.m .   d iXiXiXiXiXiX",
"dXiXiXiXiXiXf     `.iX7X+Xe.5.=.$.i.R.;XqX;Xd.$.>.=.o.F.%   X P p.#.-.X.9.' Q M.m .   d iXiXiXiXiXiX",
"dXiXiXiXiXiXf     `.iX7X+Xe.5.=.%.i.R.;XqX;Xd.$.>...7.F.%   X P p.#.-.X.9.' Q M.m .   d iXiXiXiXiXiX",
"dXiXiXiXiXiXf     `.iX7X+Xe.5.=.%.i.!.;XqX-Xg.@.=.} o.D.%   X P p.#.-.X.9.' E M.i .   f iXiXiXiXiXiX",
"rXrXiXiXyXiXf     }.iXqX+Xe.9.=.%.,.R.;XqX4Xr.o. .o.X.D.%   X P p.#.-.X.9.' U M.p .   g iXsXiXiXiXiX",
"rXrXiXsXsXiXg     .XiX7X#Xe.6.-.%.i.!.4XqX4XD.6.9.6.O.G.$ .   P p.#.=.X.0.' U M.p .   > iXiXiXiXiXiX",
"tXdXiXsXsXdXr     `.iX7XQ.2. .-.#.,.W.5XqX4XG.X.X.o.u.D.&   X P i.&.=.6.0.] E N.i + . g sXiXtXtXiXiX",
"rXdXdXiXiXiXr   o `.dX7XQ.t.6.@.%.,.W.4X7X-XF.5.8.4.4.F.% X X L p.$.;.0.0.] W N.m +   g iXdXrXtXdXiX",
"iXdXiXsXfXdX,     .XiXqX#Xt.5.=.%.,.E.=X4X;XH.P.G.P.G.T.$ X X L a.>.7.0.y.w.m.V.i +   , iXuXrXrXiXiX",
"dXiXdXdXiXiX[.v _.)._.C z.G.5.:.%.&.L.~.$X^.n n n w 0 q n q q 1.i.:.+.] [ S 4 t p C Z `.iXiXrXrXiXiX",
"iXiXtXtXiXiXiXtXiXh   . 0 J.+.=.%.&.&.,.f.1.@ .     X X S.L.d.u.} X./ E ) 4 + . k tXiXiXyXdXtXtXdXiX",
"iXtXdXdXiXiXfXtXiXx   . 0 J.5.;.>.%.%.&.<.{ . .       @ { <.<.=.6.y.] W M.8 .   x iXfXdXiXiXdXdXiXiX",
"iXiXtXdXiXiXiXdXiXx   . n P.2.7.u.:.=.:.,.{ 6 5 5 5 5 6  .:.u.2.' w.` ! M.8   o j tXrXuXiXiXsXiXiXiX",
"iXiXtXdXiXiXiXsXiXx   + 0 P.e.4.9. .o.....u.K.G.G.P.G.G.o. .y.T U Q ! b.M.u .   x dXrXdXiXiXiXiXiXiX",
"rXdXtXtXiXiXiXsXsXh   X 0 E.s.s.y.s.7.o.O.5.8.8.y.e.8.9.9.9.y.] ) m.A.m.V.7 .   h dXtXtXtXdXiXiXiXiX",
"iXdXtXdXiXiXiXsXiX_.< e B I J F K K T w.3.3.3.2.q.q.3.3.3.] D.S B N N N V y r > _.tXrXdXiXiXiXdXiXiX",
"iXiXiXdXiXiXiXiXtXiXiXdXC . . + . + 1 m.^ Y Q ^ E ^ E ^ ^ ~ B.1 . . . .   x.dXyXdXdXdXiXsXtXdXrXiXiX",
"iXiXiXiXdXdXdXiXiXyXuXiX(.  O   o . * C.b.m.N.m.N.m.M.n.m.N.C.&           c sXiXdXrXdXiXiXiXdXdXiXiX",
"iXiXiXdXdXdXiXiXiXdXuXdX'.# ; ; ; = 3 k.j.j.k.k.j.j.l.l.l.k.h.e = ; ; : # '.sXyXyXiXiXsXiXiXrXdXiXiX",
"iXiXiXdXdXdXiXiXiXdXdXuXdXiXdXdXuXtX*X. . + . . + + @ @ + . . oXtXiXiXiXiXiXyXsXiXiXsXiXiXiXiXdXiXiX",
"iXiXiXiXiXiXiXiXiXiXiXiXiXiXiXiXrXdX X              . .        XdXdXiXiXiXiXiXiXiXiXiXiXiXiXiXiXiXiX",
"iXiXiXiXiXiXiXiXiXiXiXiXiXiXiXiXtXiX|.                        |.iXtXiXiXiXiXiXiXiXiXiXiXiXiXiXiXiXiX"
};
