/* XPM */
static char *_5c70c837ca54f2db105ab8cd53c0cb8t0tRPve1KUJ7grKa[] = {
/* columns rows colors chars-per-pixel */
"50 50 251 2 ",
"   c #00080D",
".  c #000A16",
"X  c #021316",
"o  c #0E1D1D",
"O  c #05161A",
"+  c #1B1C16",
"@  c #131C1C",
"#  c #1C1D1C",
"$  c #141817",
"%  c #0A130E",
"&  c #221C1C",
"*  c #241919",
"=  c #15221D",
"-  c #1C221C",
";  c #182419",
":  c #0E281A",
">  c #22221D",
",  c #24231A",
"<  c #061B26",
"1  c #151E22",
"2  c #1C1E22",
"3  c #1B1C28",
"4  c #0A1F30",
"5  c #231E22",
"6  c #2B1D24",
"7  c #251A28",
"8  c #351A27",
"9  c #271E31",
"0  c #0D2324",
"q  c #0B232D",
"w  c #06262B",
"e  c #152323",
"r  c #1C2223",
"t  c #1D2923",
"y  c #14242A",
"u  c #1B242A",
"i  c #142A2D",
"p  c #1B2B2B",
"a  c #152A24",
"s  c #032533",
"d  c #032B34",
"f  c #0C2B35",
"g  c #042D39",
"h  c #0C2D3A",
"j  c #092536",
"k  c #132C34",
"l  c #1A2B33",
"z  c #142D3B",
"x  c #192B3B",
"c  c #162635",
"v  c #05333B",
"b  c #0B343B",
"n  c #093437",
"m  c #1B3433",
"M  c #13333C",
"N  c #1C333B",
"B  c #1C3B3C",
"V  c #163739",
"C  c #16302F",
"Z  c #232324",
"A  c #2B2323",
"S  c #23232B",
"D  c #2B242B",
"F  c #222B2C",
"G  c #272928",
"H  c #362527",
"J  c #232C34",
"K  c #292634",
"L  c #362533",
"P  c #23333B",
"I  c #233B3C",
"U  c #283639",
"Y  c #343439",
"T  c #25322C",
"R  c #66081E",
"E  c #481B27",
"W  c #56192A",
"Q  c #581833",
"!  c #54132F",
"~  c #6A0A26",
"^  c #790725",
"/  c #6D142A",
"(  c #681927",
")  c #73152C",
"_  c #741532",
"`  c #731432",
"'  c #48242A",
"]  c #53252D",
"[  c #4C2931",
"{  c #572835",
"}  c #593739",
"|  c #4B3439",
" . c #692A3A",
".. c #762539",
"X. c #491B1E",
"o. c #28413E",
"O. c #0C403E",
"+. c #162F41",
"@. c #0C3342",
"#. c #0E3B43",
"$. c #053740",
"%. c #133543",
"&. c #143C44",
"*. c #1B3C44",
"=. c #153C49",
"-. c #1A3846",
";. c #0A2D40",
":. c #382C40",
">. c #243C42",
",. c #243D4B",
"<. c #283B45",
"1. c #383B45",
"2. c #243F50",
"3. c #503A43",
"4. c #762B45",
"5. c #6F3848",
"6. c #0D4143",
"7. c #0D4946",
"8. c #144245",
"9. c #1C4346",
"0. c #15444A",
"q. c #1C434B",
"w. c #144B4C",
"e. c #1C4A4C",
"r. c #134B45",
"t. c #1D4C52",
"y. c #184751",
"u. c #1C5254",
"i. c #1C514E",
"p. c #244245",
"a. c #2B4345",
"s. c #23444C",
"d. c #2C444B",
"f. c #234A4C",
"g. c #2B4B4D",
"h. c #214D45",
"j. c #32454A",
"k. c #334A4D",
"l. c #384649",
"z. c #234B53",
"x. c #2B4C52",
"c. c #284955",
"v. c #324D53",
"b. c #364855",
"n. c #2C5254",
"m. c #27545A",
"M. c #35555A",
"N. c #28534D",
"B. c #375964",
"V. c #2E5563",
"C. c #2C6163",
"Z. c #376366",
"A. c #5C4955",
"S. c #55545B",
"D. c #4C464D",
"F. c #66434C",
"G. c #6F4758",
"H. c #4F5C64",
"J. c #715868",
"K. c #46636B",
"L. c #466978",
"P. c #556D70",
"I. c #736D74",
"U. c #706C73",
"Y. c #86011D",
"T. c #94001E",
"R. c #850422",
"E. c #880827",
"W. c #930225",
"Q. c #990429",
"!. c #920A32",
"~. c #841735",
"^. c #90122F",
"/. c #A60A2C",
"(. c #AD1837",
"). c #B3233F",
"_. c #962B3D",
"`. c #DB3C3D",
"'. c #EC3E3E",
"]. c #8E374E",
"[. c #AF3348",
"{. c #D63D45",
"}. c #CA354F",
"|. c #E33E44",
" X c #974D54",
".X c #BA4A57",
"XX c #AC565A",
"oX c #BC565A",
"OX c #A64648",
"+X c #8A5667",
"@X c #AF5C65",
"#X c #896B75",
"$X c #AA6B77",
"%X c #A5767C",
"&X c #B27874",
"*X c #CA4A4C",
"=X c #DC4345",
"-X c #D34A4B",
";X c #D6464A",
":X c #C74D59",
">X c #D84B54",
",X c #C4565B",
"<X c #DA5256",
"1X c #E74549",
"2X c #E74954",
"3X c #EF484B",
"4X c #C75962",
"5X c #DA7979",
"6X c #CF6D6D",
"7X c #E07777",
"8X c #E84860",
"9X c #93847D",
"0X c #607985",
"qX c #9A7A86",
"wX c #867B8B",
"eX c #AE7786",
"rX c #DE7F84",
"tX c #5E868D",
"yX c #64858D",
"uX c #668994",
"iX c #7A8C91",
"pX c #7A99AB",
"aX c #959699",
"sX c #AF8591",
"dX c #8C9BA5",
"fX c #94B0B3",
"gX c #B9B6AD",
"hX c #A38EA1",
"jX c #CD898C",
"kX c #CFAAA9",
"lX c #F1A19E",
"zX c #A3BCC3",
"xX c #A8C4CB",
"cX c #BCDCEB",
"vX c #FFDBDB",
"bX c #FDD6D5",
"nX c #FCCECB",
"mX c #DFE4DD",
"MX c #CEDDE2",
"NX c #FFDDE1",
"BX c #DAEAF0",
"VX c #FBEDEB",
"CX c #F8F4ED",
"ZX c #EDFEFF",
"AX c #E6F3F8",
"SX c #FEF4F3",
"DX c #F4FEFF",
"FX c #FCFEFE",
"GX c #F8F8F6",
"HX c #E6EDEE",
"JX c #CADEDF",
/* pixels */
"+ ; = t Z # 6 6 # $ Z # & A $ # 5 5 # @ r G A * * > = : : : ; = # # Z & & Z # # - = t - # Z # # > > ",
"- - ; = - # 5 & # 2 Z # & & + - A A Z r r r & * * # = a = = - Z - # Z * & 5 $ @ @ = t # $ Z & # # # ",
"> > = = r Z D Z r u r Z & + - ; A 5 r Z Z # 5 6 A Z Z u = # & * Z r G Z Z G r u u u G # 2 G Z > & * ",
"# > @ @ # 2 S 2 O = = G A & > + * * # # 5 & 7 6 # $ @ @ $ # 6 6 # $ r @ 2 r 1 r r 1 r @ # r # # + * ",
"6 G Z p u r u e p p = Z * * A * A 6 & * * 6 6 7 5 r y y u K L 9 u e p e e u 1 e u @ 1 r u S r G Z , ",
"* 5 1 p p e u e a e Z L H ' [ ' ' ' ' 8 E ' [ L D U l i l J 7 3 p i C C l l y l J 1 y u J F 1 2 + + ",
"D S u I k.j.k.j.a.l.I.qX%X$X$X+X$X$X$X$X$XeXeXsXA.S.j.*.x.v.<.<.a.p.g.g.x.v.d.b.b.j.j.d.j.k.U F Z > ",
"5 # o I k.j.k.j.<.U D.5.W / / ) ( R R ~ ~ ~ /  .#XI.D.I g.x.>.d.a.p.f.f.f.f.9.s.,.>.,.B p.k.P 1 @ # ",
"2 r 0 B g.*.>.a.j.1.A.5./ ^ E.R.^ ^ ^.R.E.^.~._  .F.A.U U j.I I a.k 9.e.r.t.9.*.-.-.9.M x.g.N y @ - ",
"2 r 0 B s.B >.<.U Y G.4.~.!.Q.W.R.Y.Q.Y.W.W.R.^ /  .+XF.| D.Y Y l.j.z.O.u.m.8.=.s.s.q.f.z.9.m < F F ",
"r e 0 B f.*.>.d.<.1.G.4.~.!.Q.W.R.Y.W.T.Q.Q.W.R.^ ~ ].@X5.G.F.#XY J s.u.u.7.8.q.q.q.&.b 8.n.d.O e e ",
"2 e 0 B f.9.s.x.d.D.G.]._ R.Q.Q.W.Y.W.W./.Q.Q.Q.R.R.^..X].]. XeXI.H.,.f.u.w.m.t.m.z.z.6.e.n.>.0 o = ",
"5 2 0 B f.q.f.x.s.l.J.+X~ ^ !.!.^.^ E.R.W.E.E.R.R.!.(.W.).R._...+XhXl.V r.w.0.c.s.M m.6.m.f.0 p e t ",
"6 5 0 B f.9.q.f.9.<.U.+X! ~.^ ^ ~.^ ~.^ E.^ ^ E.E.[.Q././.(.^.^ 4.#XD.d.0.7.8.q.m.f.m.v e.N.y @ Z = ",
"6 5 e B f.9.q.e.0.9.S.J.G.../ R _ ~ _ / _ / ) _ ~.^.[.(.}.).}.[.].Q :.d.q.t.z.&.s.q.e.r.n n.<.@ G - ",
"6 5 e I x.e.e.t.e.f.P U.qX{ 5.Q ! ! Q ! Q W W W / ~.}.>X}.2X}.:X4.{ wX0XyXuXyXuXuXuXtXfXM.B J @ # - ",
"G r o B x.0.0.z.q.c.b.<.U.I.:.7 :.K 9 9 K K L L E ( [.;X2X2X{..X..8 K c +.,.z M %.g &.g %.K.l.% - - ",
"- = 0 B c.e.0.=.=.s.d.b.b.b.x x c z x c l l l 9 6 W [.*X1X1X;X:X .6 P +.h +.h b #.d @.L.B.i p T ; - ",
"- t y k %.#.0.z.L.yXpXdXK.>.q 4 ,.+.j k l l l K H ] OX*X1X{.>X4X .6 P -.h +.z b d 6.L.V.f.g.a = - - ",
"- @ O m n.m.t.#.g s < q q z x z h +.h w k <.<.3 6 X.OX*X2X{.<X,X .6 c M ;.%.b b 6.C.V.=.9.M.o.% = ; ",
"Z Z p a.f.#.#.0.q.&.,.k -.M j -.h h M M k y l U L ] OX*X2X{.<X.X] K f g %.@.g &.C.m.0.=.m.g.m = - = ",
"# $ O m f.q.t.C.z.g g < &.M s =.%.h h M k >.P.dXaX%XoX*X2X{.>XoXE K k b @.b =.m.C.u.m.=.z.n.0 a = - ",
"# Z F a.s.%.#.y.0.b %.b g s s #.s %.h w M.fXBXAXSXnX5X*X=X=X<XoX' S M &.b %.m.Z.r.m.0.c.c.*.m = = = ",
"# # @ m x.m.m.t.&.v d %.g &.0.d =.j s M.fXZXDXHXFXvXrX*X=X=X-XoX{ 3 f 0.g M M.m.0.#.q.&.q.x.m a t - ",
"& # e I M.z.0.m.0.b b b v v $.v %.j f uXZXDXAXGXSXbX5X-X1X1X>XoX] S z b %.-.s.g.f.8.-.s.s.g.o.t # # ",
"& > e I M.f.0.m.z.t.z.t.=.v v v j -.f xXZXAXDXFXSXbX5X-X1X`.;X4X] S k g z ,.d.M.x.p.c.s.x.p.I = # * ",
", > e I v.f.0.m.&.=.q.q.0.v v @.=.z M JXZXDXDXGXVXbX7X-X3X|.{.,X] S N M +.>.P I B V z d.,.v.m = # & ",
"+ # @ m g.9.=.t.q.q.=.&.=.b g @.@.j M xXZXFXFXmXkXnX7X;X3X|.{.,X] S N M x x < O w X < q x.d.I @ Z A ",
", Z r I v.f.9.z.q.s.9.=.=.b g #.;.%.w dXDXAXmXI.H $X6X-X1X|.;X4X{ S k h c x < .   O < -.,.M.m = Z 6 ",
"+ # @ l p.%.M &.-.*.s.s.&.g g #.@.h d K.JXDXDXaX} &X5X>X1X1X;XoX] 5 k M x x O     < >.>.M.s.B e Z 5 ",
"Z G r P g.s.f.c.c.s.s.,.%.g g b =.g M w P.MXDXSXvXbXjX-X|.|.>XoX] S k %.+.l X   X N ,.d.s.x.m a 2 5 ",
"+ - o i s.s.z.m.,.f q k z M %.@.g g d V P.HXFXSXSXnX5X-X1X|.;XoX{ K k b z c < X i s.c.-.f.f.m e Z Z ",
"# - e I g.s.s.s.c . . . 4 h %.b b %.;.B.AXHXGXFXVXvXrX-X|.|.;XoX[ 2 k M b d < P d.s.e.0.e.N.m o Z 5 ",
"Z u e I g.q.s.s.x . . . 4 h b v f g g pXDXFXGXCXVXvXrX-X1X3X;XoX[ u k f b %.M d.,.s.u.r.r.h.m r Z 5 ",
"> r e B f.q.q.s.x .   . q M b v M %.@.cXZXFXGXSXCXvX5X-X3X3X=XoX[ u i w b q.s.b.-.9.t.7.r.h.m r Z 5 ",
"# - e B f.e.e.f.k .     q M b b s M h cXAXAXFXVXVXvX5X<X3X'.`.,X[ J C n #.z.q.s.s.q.w.7.r.N.m @ G , ",
"> - e I x.e.e.f.n O X X f n b b f %.&.xXDXFXCXgX9XkX5X<X1X'.=X,X[ u k V e.u.=.q.=.q.w.w.i.n.I 1 Z , ",
"> r e B f.0.8.8.%.w w w V n g b M f g 0XAXDXmXI.H %X6X*X`.1X1X.X[ y N 9.u.t.#.q.#.&.w.7.r.f.P r - & ",
"5 r 1 N s.8.8.8.q.V *.B f.&.g b %.j h c.zXAXDXgX#XkXjX,X;X1X;XOX| J *.q.t.t.#.0.#.6.w.6.0.f.N 1 r # ",
"Z r 1 m s.0.0.t.e.q.c.f.M.q.b b h j =.g K.fXHXCXVXNXjXoX*X-X*XoXF.1.d.f.e.t.8.t.t.0.8.#.e.n.P 1 r - ",
"5 2 u N s.f.0.z.t.e.f.9.B.K.c.d z h j s f d.P.iXaX#X$XXX.X*X,XXXA.1.d.*.9.t.8.z.t.e.e.0.s.g.P u Z Z ",
"S 5 u P d.s.q.q.z.q.q.V M.P.tXyXP.L.L.L.K.K.P.U.I.J.+X XXXXXXX+X3.P <.B *.f.&.z.&.&.&.V p.k.P 1 2 # ",
"2 2 1 J d.c.,.s.9.9.s.B g.x.M.M.b.b.V.m.n.v.k.l.D.A.%XsXjXjXjX%XD.1.j.a.p.s.B s.s.*.p.>.d.k.P 1 Z r ",
"Z Z S U b.b.d.x.g.,.p.I g.d.d.d.<.<.,.2.s.p.a.1.1.:.3.| } } } 3.Y T U <.a.d.p.k.p.p.a.<.<.j.J r @ @ ",
"# # # 3 l l c l l 0 y 0 m l l P p l N N m i a r S 7 L 6 H H H D T F F F p y 0 i l i l u u J u r G Z ",
", Z Z r u u y p p e p e p o O o @ 1 u y 0 0 e r S 9 D & > > # r $ $ @ 1 r e e p e 1 r @ 1 r 3 Z - - ",
"+ - # # r 2 r u r e t $ e = r T Z Z u y e = r u 5 7 S # t = = r t t r r r 1 1 @ r r S 2 2 Z 2 Z # + ",
", , > > G G Z Z Z # t $ t = @ = + + 2 r e = - - S S S $ = ; o r = - # Z Z Z Z r # # 5 2 5 Z # - > > ",
"- - - # $ $ # 2 # $ Z + > - - > + > > - - - r r r 2 2 Z Z = r r $ Z # # # + # # # 2 Z 2 5 5 $ # - + ",
"- - - - # # # & Z # Z + > > - , * > > - - - r r r r # Z S 2 r r $ Z > - > + > - # & Z 5 Z > + - > ; "
};
