/* XPM */
static char *a81bd32400234b7edef27b4975479fc2LCl0TNJ5NtcmamSr[] = {
/* columns rows colors chars-per-pixel */
"50 50 244 2 ",
"   c #00030D",
".  c #010614",
"X  c #020C18",
"o  c #01141B",
"O  c #0B1B18",
"+  c #1B1D16",
"@  c #141D1B",
"#  c #1C1D1C",
"$  c #151B15",
"%  c #181C0F",
"&  c #231D1C",
"*  c #291E1D",
"=  c #251915",
"-  c #3E131C",
";  c #1C2216",
":  c #16221C",
">  c #1C221D",
",  c #0E211F",
"<  c #22221D",
"1  c #29261E",
"2  c #091B26",
"3  c #141D23",
"4  c #1C1D23",
"5  c #1A1D28",
"6  c #0D1E32",
"7  c #231D23",
"8  c #2A1C23",
"9  c #211A27",
"0  c #371B22",
"q  c #291D35",
"w  c #0B252C",
"e  c #082429",
"r  c #152323",
"t  c #1C2223",
"y  c #1C2923",
"u  c #13242B",
"i  c #1B242B",
"p  c #142B2C",
"a  c #1B2B2D",
"s  c #162926",
"d  c #032C35",
"f  c #0B2B36",
"g  c #052D3A",
"h  c #0B2D3B",
"j  c #042534",
"k  c #132532",
"l  c #1D2631",
"z  c #132B34",
"x  c #1B2A33",
"c  c #122D3A",
"v  c #15293A",
"b  c #05333C",
"n  c #0B333C",
"m  c #073539",
"M  c #153334",
"N  c #1D3535",
"B  c #13333C",
"V  c #1B343B",
"C  c #1B3A3A",
"Z  c #183A3B",
"A  c #17312F",
"S  c #202021",
"D  c #222222",
"F  c #292325",
"G  c #23242A",
"H  c #232A2C",
"J  c #272827",
"K  c #352828",
"L  c #26332D",
"P  c #212B34",
"I  c #262535",
"U  c #23343B",
"Y  c #2A353C",
"T  c #26393B",
"R  c #373038",
"E  c #6C031B",
"W  c #471828",
"Q  c #551735",
"!  c #4F1835",
"~  c #6C0C29",
"^  c #760A25",
"/  c #6D122B",
"(  c #631628",
")  c #771435",
"_  c #751030",
"`  c #4C2A2E",
"'  c #48262C",
"]  c #4A2932",
"[  c #532B33",
"{  c #483737",
"}  c #54312F",
"|  c #772638",
" . c #712632",
".. c #32413F",
"X. c #25413E",
"o. c #524034",
"O. c #0D2E41",
"+. c #063441",
"@. c #0B3442",
"#. c #0D3B44",
"$. c #0C3D48",
"%. c #133442",
"&. c #1B3541",
"*. c #133C44",
"=. c #1B3D44",
"-. c #183A49",
";. c #162C43",
":. c #223D44",
">. c #2C3C44",
",. c #223E4A",
"<. c #283B46",
"1. c #353B46",
"2. c #5A3C43",
"3. c #453E42",
"4. c #6F3044",
"5. c #0C4344",
"6. c #0A4848",
"7. c #144246",
"8. c #1C4345",
"9. c #14444B",
"0. c #1B444B",
"q. c #144A4B",
"w. c #1B494D",
"e. c #134947",
"r. c #1E504E",
"t. c #1A4651",
"y. c #1C4C52",
"u. c #134950",
"i. c #1F5156",
"p. c #234345",
"a. c #2A4244",
"s. c #23454B",
"d. c #2B454B",
"f. c #244A4C",
"g. c #2B4A4D",
"h. c #36464C",
"j. c #24514F",
"k. c #234551",
"l. c #224C52",
"z. c #2B4C51",
"x. c #294A55",
"c. c #344D52",
"v. c #364955",
"b. c #245155",
"n. c #2C5153",
"m. c #2C525B",
"M. c #24555B",
"N. c #355559",
"B. c #33524E",
"V. c #355A64",
"C. c #2E5863",
"Z. c #3A6369",
"A. c #475259",
"S. c #534C52",
"D. c #6A4B58",
"F. c #734856",
"G. c #4F5D6C",
"H. c #765D69",
"J. c #725E69",
"K. c #486977",
"L. c #51656C",
"P. c #696972",
"I. c #746F77",
"U. c #88031C",
"Y. c #97031B",
"T. c #840324",
"R. c #8D0324",
"E. c #860829",
"W. c #940124",
"Q. c #990127",
"!. c #960729",
"~. c #8A1535",
"^. c #8D132D",
"/. c #AD132A",
"(. c #9A2C3B",
"). c #B62739",
"_. c #CF2739",
"`. c #F13D36",
"'. c #EE3E3E",
"]. c #9B403B",
"[. c #F2423B",
"{. c #E4433E",
"}. c #8B3749",
"|. c #A83647",
" X c #DA3B47",
".X c #C23347",
"XX c #E83C47",
"oX c #92495C",
"OX c #B94A54",
"+X c #BA5457",
"@X c #A74545",
"#X c #965569",
"$X c #8B5763",
"%X c #B05B6B",
"&X c #946B73",
"*X c #AA6978",
"=X c #CA4548",
"-X c #DD4545",
";X c #DC4949",
":X c #D8454B",
">X c #C84A58",
",X c #D94955",
"<X c #C35453",
"1X c #C65758",
"2X c #EB414C",
"3X c #E44647",
"4X c #EB4551",
"5X c #E74751",
"6X c #D77377",
"7X c #E0746D",
"8X c #E37975",
"9X c #73847E",
"0X c #547C81",
"qX c #6A7886",
"wX c #987685",
"eX c #AD7989",
"rX c #D37985",
"tX c #63848F",
"yX c #668A93",
"uX c #79919C",
"iX c #6E9AA0",
"pX c #8E8D90",
"aX c #AF858C",
"sX c #829BA8",
"dX c #99AEB3",
"fX c #BAADAE",
"gX c #C8948E",
"hX c #C6B1B0",
"jX c #B7C2BE",
"kX c #AABCC6",
"lX c #B1CAD4",
"zX c #FEDBDA",
"xX c #FBC9CA",
"cX c #FFE0DF",
"vX c #C5DAE5",
"bX c #DAEBED",
"nX c #FEE3E4",
"mX c #F9ECEA",
"MX c #E9F6F8",
"NX c #F3FDFE",
"BX c #FCFDFE",
"VX c #F9F4F4",
"CX c #EDEAEC",
"ZX c #D7E0DF",
/* pixels */
"; ; ; + 7 7 7 F S < > < < < & 1 J + t t 4 G F # S t r r t > & & 1 + < + + < ; D # 7 7 & & + ; < > S ",
"% ; + + 7 7 7 F # # + + + + & & + $ t t 4 F S # & t r r t # & & < + < < > > $ : # 4 7 & # + ; ; > S ",
"; < < & F 9 4 4 4 t > > y D D F S t t @ # t # S D D t t t 4 4 # # $ > ; ; : @ r i G G D t D > ; > S ",
"+ ; # S G 9 5 G 3 # : @ # t t 4 4 S D # < D # D F D D 4 4 4 t t G 4 y : : s r a r i i 4 4 t > # t S ",
"+ < S D 4 4 3 i i i i r r i i t O $ + + 1 D + S 4 4 4 4 5 r u u G 4 t 4 3 r 3 i i l P i 5 D F 7 S S ",
"D D G G P i u x u p p u u p a u L H J 1 1 K 1 J G i G i a z M V l i P x a a u x u x x k i i 4 # S S ",
"+ + 4 P >.>.<.d.d.d.d.a.a.g.g.d.N L { { { o.{ R ..a.>.a.p.8.w.w.d.<.g.g.f.f.p.p.p.f.l.s.x.h.>.H t S ",
"< # r U h.z.,.=.=.p.p.=.=.s.s.p.a.S.&XgXgXgXaXpXA.N.c.c.z.b.b.m.V.v.m.n.f.w.=.8.0.0.0.0.l.d.U 3 t S ",
"# t 3 N g.8.=.0.w.*.l.0.8.=.0.:.P 2.#XOXOX<X+X$XJ.P.P.L.G.L.K.K.G.K.tXtX0Xn.B c.s.k.t.0.8.:.P 5 9 S ",
"t y r T z.w.9.w.9.y.l.*.l.0.*.z.h.D.+X>X:X:X>X%X&XpXpXP.h.2 6 v ;.h g 7.Z.Z.s.s.s.l.y.w.0.s.U 5 t S ",
"> y r C n.q.9.q.9.y.y.n l.y.9.l.h.2.+X:X3X X,XrXnXMXMXMXdXG.c -.g @.b d q.M.f.l.0.w.u.6.e.0.V 5 t S ",
"+ t , C f.q.5.6.e.#.9.*.0.y.y.=.x ] OX;X2XXX,XrXhX9XjXNXMXdXk.g @.$.+.d 5.w.=.&.*.9.6.6.5.0.V 3 t S ",
"& S : N j.q.6.e.e.n 9.*.w.l.t.n w ] +X3X[.'.,X6X&Xy I.ZXNXMXqXj @.b b d n Z u 3 k =.9.5.9.f.<.4 t S ",
"* D r N j.q.e.q.5.9.0.*.m.l.@.n p ] 1X{.`.[.5X6XhXpXfXVXBXNXlX%.O.@.$.Z m e . X o v 0.q.w.z.>.4 9 S ",
"* 1 : N f.q.e.q.e.q.f.=.m.=.g B p ] <X{.`.[.3X8XzXCXmXVXVXbXvX-.%.d d m B w .     x w.q.q.g.Y 4 S S ",
"* D @ N f.q.e.q.w.*.z.d.=.h b h x ' <X{.[.[.-X8XcXVXBXmXBXNXlXh -.b b n m e .   . z f.q.e.s.Y 4 t S ",
"& t r C w.e.q.w.8.p.:.&.B n b b x ` <X3XXXXX-X8XzXmXVXBXNXNXsXg @.@.b b f 2 X . X V l.7.0.g.N i t S ",
"9 G 2 Z j.e.r.8.s.d.U 6 w %.#.d x ` <X3XXXXX-X8XnXmXBXNXMXbXV.b @.+.@.n h j 2 . . c k.0.w.g.N i t S ",
"F 4 a M w.r.7.0.g.u o 2 z h b %.x ` <X3XXXXX-X8XxXBXVXNXbXL.B j b +.+.n n c k k v ,.m.0.0.p.p O t S ",
"7 H 3 T f.7.b.s.z o . X k &.%.f i ` <X3XXX2X;X8XnXCXVXNXbXL.z %.b +.+.b n %.,.,.,.k.b.0.f.g.U i t S ",
"8 # a U g.n.Z =.o .   o v &.@.f i ` <X3XXX2X;X8XaX3.pXNXNXZXv.j @.@.+.b n *.,.k.-.*.*.n *.p.P t t S ",
"8 J O T B.8.B o o     2 V z h &.l [ <X-XXX2X-X7X#XK I.ZXMXNXsXc h @.+.b b *.=.=.m.t.y.9.0.c.Y 4 t S ",
"F & t N g.s.w o o 2 3 2 k &.*.c l [ <X-XXX2X-X7XxXfXCXBXBXNXlXc h @.+.b b *.0.-.*.#.9.9.=.d.Y @ t S ",
"= D r U g.s.8.B V V U :.&.c h B l [ <X-XXX2X;X7XzXVXCXNXBXNXvX&.%.#.@.b b *.8.0.0.9.M.y.8.g.Y 4 S S ",
"& + r U g.f.8.f.s.c.N.g.&.n b h l ` 1X-XXX4X-X8XzXVXBXBXNXNXkXB h b b b b 9.l.l.*.y.M.w.f.c.>.4 S S ",
"< $ s X.p.0.0.=.*.f.z.p.=.@.b B l ` 1X-XXX2X-X8XzXBXVXMXBXMXuXf O.@.b b b b n n n 9.y.y.l.c.Y 4 t S ",
"$ y s M g.0.Z 0.0.=.m.m.B b *.h x ` 1X-XXX2X;X8XnXBXNXNXNXdXv.h h @.+.#.#.n B f g 9.y.i.b.g.T 3 t S ",
"> @ s C 8.f.l.0.l.w.V.V.b g 9.h x ' <X-XXX5X;X6XnXCXMXbXdXA.f O.g g g e j n B B n 9.9.5.*.p.T H t S ",
": L r p n.l.*.b.y.Z.m.*.*.@.b %.x ' +X3XXX5X:X+XaXpXsXP.a.v %.h -.b t.n b *.j f %.l.M.y.0.p.N @ t S ",
"y : r C f.f.9.9.C.V.9.d b #.+.n P ` <X3X2X5X=X@X' R U w w c %.@.-.j +.g h %.f ,.%.0.w.#.*.8.T a t S ",
": y r M n.f.*.C.V.*.@.@.d +.$.g l [ <X;XXX5X=X].' G u B &.h g @.g @.@.%.n f w 2 j g #.w.b.f.C O t S ",
"> y r N z.f.l.K.*.d d @.@.g @.&.9 [ 1X;X X5X:X(.} D u B c h O.O.h k.j e &.G.sXuXyXK.y.*.7.Z z a t S ",
"< $ y A e N.0Xd n n n f B B %.Y 0  .1X X2XXX,X@X' K P z z c v &.k x x P 1.A.v.-.t.9.t.0.0.z.U 5 t S ",
"% J O a.L.Z d n n *.B B &.V v I - | >X X4X4X:X|.( W K I I I q q I R 9 R I.I.U m.y.u.y.0.0.z.U r t S ",
"< $ O T C N.iXyXyXyXtXtXyXtXqXqX[  .>X,X4X_.:X=X) ( Q ! Q Q Q Q W W Q 4.4.wXP.U l.9.y.0.q.j.Z r t S ",
"$ L r N f.*.w.9.w.y.0.8.f.s.s.1.] }.|..X_. X/.).(.~.) _ _ ) _ ) ~ / ~ ) ) oXH.A.p.9.w.9.e.r.C r t S ",
"; : O A z.0.$.M.9.y.0.0.0.8.k.v.&X| E.^./././././.!.E.T.E.E.E.E.E.~.^ ^ ~.~ oXI.a.8.f.0.8.f.C r t S ",
"J y p p f.l.$.9.9.y.y.0.0.0.9.d.aX#X| (.!./.Y.).!.W.W.W.Q.Q.U.U.R.!.!.!.R.^ #XD.h.s.f.0.8.f.U 3 t S ",
": O O :.m.y.9.y.y.i.y.l.l.l.y.x.G.H.eXoX}.|.OX^.R.R.Q.Q.Q.W.U.U.R.W.W.Q.!.T.}.D.h.d.g.0.8.d.U 4 S S ",
"@ a r C z.=.*.9.9.9.7.7.y.y.0.0.&.>.I.D.F.}.%X}.^ T.!.W.W.W.U.R.W.W.Q.W.Q.^.4.D.1.p.s.8.8.s.U 4 t S ",
"J r r N f.l.0.9.9.0.7.7.l.l.y.0.9.l.:.Y 3.{ 2.$X| / E T.R.U.U.U.W.W.W.!.!.~.4.D.Y 8.8.=.7.s.:.5 t S ",
"t : r U g.s.=.8.=.0.=.8.s.f.0.0.5.w.7.=.d.Y R S.F.| ) E.E.E.E.^.T.E.T.E.T.^ 4.D.a.s.s.8.0.f.:.u t S ",
"# @ 3 U g.s.=.,.:.s.p.p.f.g.f.f.=.k.f.s.n.p.X.c.pXH.4.( ~ ^ E E / / / _ ~ ( 2.S.T p.d.z.z.z.:.3 t S ",
"D D H Y h.v.d.d.g.c.c.g.B.B.g.c.>.h.>.d.z.f.p.B...J.wXaX*X%X*XeX*X&X#X*X*X*XwXI.T a.h.v.v.v.>.i t S ",
"% + # r x P x u u a a p a a p a G G 9 i x p w M L H K ' ' W W 0 ] ' ' ` ` ' K y a i i G i G G 4 S S ",
"& F D 4 i l i u 3 i t r i r r i D F 8 G H a r p s @ + 8 0 8 8 J & 1 & * = = < : s r 4 9 4 D G D S S ",
"& < # 4 t 5 3 5 4 t t @ t t r : $ + + # 4 @ @ @ @ # & * & + @ y # & + < = = J y O @ 7 F t : : $ t S ",
"& + + D G 4 4 H t G > # t G t y > : ; # 7 4 t G D J F & & D i @ D D + < & < < O : # F F t : : ; > S ",
"& < & & F S & < > > # + > # 4 D t : < < # t y : y # + & & & > J & J # # < + ; : > 7 8 7 # : y ; > S ",
"> < & # D & & < < < ; ; < & 7 F t : < < + > y : : : + 1 * & + < & F # ; < + > > # 7 8 8 # y > + > S "
};
