/* XPM */
static char *_855cb5e817d4ad2a254ee7ec0e7eecdHyRyX6TZe9bHbQpf[] = {
/* columns rows colors chars-per-pixel */
"50 50 242 2 ",
"   c #030301",
".  c #0A0201",
"X  c #04030C",
"o  c #0A0609",
"O  c #0A090A",
"+  c #080905",
"@  c #1C0C05",
"#  c #140901",
"$  c #1B1502",
"%  c #191604",
"&  c #1D1E1D",
"*  c #181917",
"=  c #210D06",
"-  c #241604",
";  c #221D1D",
":  c #29181A",
">  c #1C221D",
",  c #192217",
"<  c #332904",
"1  c #373304",
"2  c #22211E",
"3  c #27261C",
"4  c #292400",
"5  c #1E1E22",
"6  c #231E22",
"7  c #291E23",
"8  c #231E29",
"9  c #1C2322",
"0  c #1D2429",
"q  c #1D2B2C",
"w  c #1A2623",
"e  c #1C353A",
"r  c #1B3A3B",
"t  c #183737",
"y  c #142F35",
"u  c #212021",
"i  c #23252B",
"p  c #232A2C",
"a  c #272827",
"s  c #262630",
"d  c #213A3D",
"f  c #253638",
"g  c #3B3B36",
"h  c #3B3B3A",
"j  c #363636",
"k  c #363327",
"l  c #453C0B",
"z  c #413D39",
"x  c #17423D",
"c  c #0C413B",
"v  c #3B413E",
"b  c #2B413E",
"n  c #5C410C",
"m  c #654519",
"M  c #715B08",
"N  c #75660E",
"B  c #464637",
"V  c #544D33",
"C  c #6E532B",
"Z  c #686538",
"A  c #0B3E45",
"S  c #153C42",
"D  c #143E4C",
"F  c #1A3C4C",
"G  c #1C3842",
"H  c #183D52",
"J  c #243A44",
"K  c #393E42",
"L  c #243E53",
"P  c #0E4347",
"I  c #144445",
"U  c #1A4345",
"Y  c #154A46",
"T  c #1B4B46",
"R  c #14454B",
"E  c #1B444C",
"W  c #154B4C",
"Q  c #1B4B4C",
"!  c #1C524E",
"~  c #16524A",
"^  c #0D4555",
"/  c #164454",
"(  c #1B4353",
")  c #1C4C52",
"_  c #1D4B59",
"`  c #194856",
"'  c #1B5353",
"]  c #185154",
"[  c #224B4C",
"{  c #284747",
"}  c #334244",
"|  c #3D4243",
" . c #35414A",
".. c #38464A",
"X. c #22534D",
"o. c #2B544E",
"O. c #224453",
"+. c #234D53",
"@. c #224A5C",
"#. c #274A58",
"$. c #235253",
"%. c #295253",
"&. c #235358",
"*. c #285058",
"=. c #375558",
"-. c #374B54",
";. c #3E5661",
":. c #254961",
">. c #444742",
",. c #495A5A",
"<. c #595A52",
"1. c #474A51",
"2. c #48625D",
"3. c #736C49",
"4. c #746C56",
"5. c #727155",
"6. c #415C61",
"7. c #535E63",
"8. c #476264",
"9. c #566C6E",
"0. c #6C7371",
"q. c #8A7514",
"w. c #A27C3C",
"e. c #A47C37",
"r. c #8A6724",
"t. c #8B7440",
"y. c #99961D",
"u. c #9D9B2C",
"i. c #9A9F27",
"p. c #A5982C",
"a. c #AA8732",
"s. c #B5B02F",
"d. c #AFAA1B",
"f. c #D9B31C",
"g. c #E2BE1D",
"h. c #D39F34",
"j. c #D39E39",
"k. c #CD9C2B",
"l. c #C9A92A",
"z. c #D5A427",
"x. c #C5B82A",
"c. c #D8A835",
"v. c #D3BE3C",
"b. c #CEB236",
"n. c #E3B623",
"m. c #E1B821",
"M. c #ECB729",
"N. c #D49D1C",
"B. c #DBD51C",
"V. c #EBD819",
"C. c #F4DA15",
"Z. c #F3D61B",
"A. c #F3DB1A",
"S. c #F8DD18",
"D. c #F7CD1F",
"F. c #F6ED09",
"G. c #F8EC09",
"H. c #F5E70C",
"J. c #F9F306",
"K. c #F6F30C",
"L. c #FAF30B",
"P. c #F5F506",
"I. c #EFE71A",
"U. c #F4E411",
"Y. c #F7E81A",
"T. c #F9F416",
"R. c #EDEE04",
"E. c #D5C238",
"W. c #CDCB2A",
"Q. c #E9CD25",
"!. c #F5CB2A",
"~. c #ECD32D",
"^. c #ECD925",
"/. c #F8D726",
"(. c #F6D924",
"). c #FADA25",
"_. c #F3D627",
"`. c #ECD331",
"'. c #EAD637",
"]. c #F5D737",
"[. c #F0CA38",
"{. c #EFE928",
"}. c #F4EA27",
"|. c #EEF129",
" X c #EFF226",
".X c #F6F523",
"XX c #F5F923",
"oX c #F1F12B",
"OX c #FAF723",
"+X c #EEEA34",
"@X c #F4EB33",
"#X c #F2F131",
"$X c #EFF032",
"%X c #B48843",
"&X c #A69F67",
"*X c #CC9C4B",
"=X c #CC9F5C",
"-X c #D9A64B",
";X c #CBB943",
":X c #D3BC41",
">X c #C7A255",
",X c #DAA954",
"<X c #CAA24A",
"1X c #D6D151",
"2X c #F5D947",
"3X c #F4DD53",
"4X c #ECD64D",
"5X c #F5F647",
"6X c #F6E556",
"7X c #EFEB50",
"8X c #EADA62",
"9X c #FBE675",
"0X c #FAE97A",
"qX c #F7F26E",
"wX c #8A8B88",
"eX c #8B989B",
"rX c #919292",
"tX c #918F83",
"yX c #939DA5",
"uX c #8D95A0",
"iX c #B9B9B4",
"pX c #DFDC8F",
"aX c #F6F58B",
"sX c #FAF48B",
"dX c #FBF79A",
"fX c #F7EC8E",
"gX c #FEFDB9",
"hX c #FBF9B6",
"jX c #F9F3A7",
"kX c #D4D2AA",
"lX c #DADBDA",
"zX c #D7D9D7",
"xX c #D6D6CA",
"cX c #FEFDC3",
"vX c #FDFCCC",
"bX c #FDF7CA",
"nX c #FDFED2",
"mX c #FDFDDE",
"MX c #FEF5D4",
"NX c #FDFDE2",
"BX c #F8FAE7",
"VX c #F8F9F8",
/* pixels */
"2 ; u 9 & > > 7 6 6 6 7 6 6 u u i 6 7 6 6 6 8 8 u 5 i 7 i 5 6 8 ; a & 5 u 6 u & > > w > 5 5 9 7 u u ",
"> ; u 9 6 2 9 ; > u 9 9 > > > & > > , , > , , , , > > , 3 , a > 2 > > > 9 > > > 7 : ; 2 7 i 9 u u u ",
"> ; u u 7 u 0 5 & u & & & ; u ; ; u ; * & 2 2 & 2 2 u ; ; * ; & & u ; 7 ; ; ; ; 6 6 & 9 7 6 > & u u ",
"> 6 5 u ; u e e t r t r r r r e e e e e e e e d d e r e e d y e r d e e e y d y t r r r 9 & > 7 u u ",
"> 7 5 u ; q T ) Q ' ] ' ] ] ' W ' ] W ' W ' ] ] ! ] ' W W ! ' ' ] W ) ) W W ' ] ~ ' ' X.q 9 > a u u ",
"& 7 > 9 ; 0 W ^ U Q Q W R Q ! I W Q W $.R Q U R Q R R R ' I ' R Y ! Q I W ) T E Q E R [ 0 2 * 5 u u ",
"& u & 9 ; 0 E ^ I I R P R W I Y Q [ [ %.[ S y S S S S t r t +.O.~ X.Q U Q I I r F F D E 0 2 > 6 u u ",
"u u & 9 7 s O.H Q Q E D E E +.9.f b f } 0.eXyXeXyXuXyXeXeXeX9.f J } e 9.+.) ) I E ( ^ _ 0 ; & i 9 u ",
"> & 7 > ; 9 Y I Y ) R ^ R S +.0.X   O + wXVXVXBXVXVXVXVXVXVX<.X O o o 0.I W @.U ( D D I 0 > a > u u ",
"2 & 7 > 6 0 Q R Y ) ) D O.{ #.0.* * * 2 &XMXnXbXbXcXhXhXbXbXZ @ % - = 5.o.o.) I ( ( +.! q & ; 5 u u ",
"2 u 7 > 6 p Q ) W ) R R 6.| q rXzXzXxXkXpX8X4X4X3X6X4X3X3X2XE.x.l.p.%XC a ,.=.U R I ) Q p & 7 u u u ",
"u & 7 & ; 0 Q / c Y P A -.a   rXVXVXNXcX0X`._.'.[.`.4X'.Z._.].~.[.c.,Xm . h [ A Q R Q Y 0 & 7 9 u u ",
"9 & 7 & ; 9 W R X.Q ~ ] =.i X rXVXBXjXfX6X(.@XqXsX0XfX6XY.Y.Z._.M.z.-Xl . j %.) ) W ' ! p > ; 9 u u ",
"9 & u 9 ; 0 Q ` I I Q ) =.5 X tXmXhX1X^.}.Y.7XgXBXnXmXhX5XK.U.(.!.z.,Xm . z [ +.%.U ' ' p 9 u 9 u u ",
"9 9 u 9 ; 0 ) _ I R 8.8.0.1.a &XhXsX{.H.}.5XqXjXcXjXgXjXE.W.^.V.V.f.:XM < B 2.2.=.U Q ! p & ; 9 u u ",
"u 9 7 > ; 0 ) _ T E 7.k <.iXkXpX8X+X}.I.qXdXdX7X5X7X4X1Xl 1 d.T.Y.!.].l.a.t.z j 6.U Q ' p ; 7 9 u u ",
"u u u > ; 0 Q ( x E h   g zXBX0X`.(.T.oXsXvXgX$XT.I.^.:X- . p.T.G.Z.).n.h.w.@ O } E E T i 6 > & u u ",
"u & 7 > ; 0 R D I E K   g zXNX0X`.A.T.oXsXvXgX$XK.I.V.v.- . p.OXG.Z.).n.h.w.@ O  .E ( Q i 6 2 u u u ",
"& & 7 9 u p Q / Q +.|   h zXmX9X~.A.T.oXsXvXgX#XJ.U.C.v.$ . p.OXG.A.(.m.h.w.@ o  .( ( Q s 6 u 6 u u ",
"u u 7 > ; 0 R D W ) |   h lXmX9X~.A.L.oXsXnXgXoXJ.H.C.E.$   u.XXG.A.(.m.h.w.@ o  .( ( Q i 5 & 5 u u ",
"u & 7 > 6 p Q ) Q ) v   h lXmX9X~.A.L.oXsXnXgXoXJ.U.C.v.$   u.XXG.Z.(.m.h.w.@ o  .E +.! p u 2 & u u ",
"> > 7 9 u p ! ' Q +.v   h lXmX9X~.A.J.oXsXnXgXoXJ.U.A.v.$   u.OXG.Z.(.m.h.w.@ O  .E +.X.p & > ; u u ",
"u u 7 > & 9 I I S E h   g lXmX9X`.A.J. XaXnXgXoXJ.U.C.E.$   u.OXF.Z.(.m.h.w.@ O K E E T p & 2 ; u u ",
"> & 7 9 6 0 Q ) F O.|   h lXmX9X`.A.J. XaXvXgXoXJ.H.C.E.$   u.OXF.Z.(.m.h.w.@ O ..+.+.X.p 5 u 6 u u ",
"2 u 7 > & 0 W ` I E K   h lXNX9X`.A.K.oXsXvXgX#XJ.H.C.v.$   u.OXG.C./.m.j.w.@ O } E +.X.p 5 & 6 u u ",
"> u 7 9 u 0 Q @.U Q |   g lXNX9X~.A.K.|.sXvXgX$XJ.U.A.:X$   u..XG.A./.m.j.w.@ O } Q +.X.p > > u u u ",
"2 9 7 > 6 0 Q _ Q +.>.  h lXmX9X~.A.K.|.sXnXgX$XJ.U.Z.:X$   u.XXF.Z.(.m.h.w.@ O ..+.$.X.p > > > u u ",
"> 9 7 > 6 0 R ( I Q v   g lXmX9X~.Y.K.|.sXnXgX#XJ.U.C.v.$   u.OXF.Z.(.m.h.w.@ o } E O.Q p 9 > ; u u ",
"> & 7 9 6 i E ( I Q v   g lXNX9X~.A.L.|.aXnXgX#XL.U.C.v.$   u.OXF.Z.(.m.j.w.@ +  .( O.Q p 6 6 7 u u ",
"> > u 9 6 0 R ( Q $.|   h lXmX9X`.A.L.|.aXnXgX@XG.U.C.v.$   u.XXF.Z.(.m.j.w.@ + ..O.O.[ s 6 6 7 u u ",
"> > 6 > 6 p T / T $.|   h lXmX9X`.A.J. XaXnXcX'.U.C.Z.v.$   u.XXG.A./.m.h.w.@ + } ( O.Q p 5 2 2 u u ",
"> 9 6 > u p ! _ Q &.|   z lXNX9X~.C.L..XaXmXbX'.A.Z.Z.v.$   u.OXG.A./.m.h.w.@ + } ) *.X.p > > 2 u u ",
"> > 6 > u p Q ) T ) v   K zXNX9XV.S.J. XdXvXcX2XV.Z.S.v.- . i.XXF.S./.n.k.e.= O  .U +.[ s 9 9 6 u u ",
"2 u 7 & & 9 Y R U Q v   K zXNX0X~.S.L..XsXvXhX2X_.`.Q.;X%   y.XXH.).!.n.<Xw.= O  .U ) [ s > > u u u ",
"& & 7 > u p ! +.Q &.,.p 7.iXkX8X'.C.L.I.qXjXdX;Xb.b.x.s.1 1 d.Y.Y.!.[.z.a.t.k j ,.$.$.%.s > & u u u ",
"u u 7 > ; 0 Q ) I Y 8.6.8.>.k y.'.A.P.P.XX5X1X< < < < l s.W.B.I.V.z.c.q.- V ,.,.=.Q Q X.p > ; 2 u u ",
"u u u 9 u 0 Q ) E Y R / =.u . q.].(.T.K.P.T.B.#       4 B.OXV.^.!.z.-Xm   h *.E [ W $.X.p > ; 2 u u ",
"& & 7 9 u p ) _ O.X.E / =.2 . q.].(.Y.}.Y.U.B.N N N N q.V.{.Q.g.M.h.-Xm   v +.Q +.Q +.[ p > ; 6 u u ",
"9 > 7 & & 9 I D S R U R -.3 # q.3X_.Z.Z.A.A.).].].2X].].A.).f.N.h.j.,Xm   g [ x E D E U p 9 u u u u ",
"9 9 u > u i Q ( W ) Q R 6.B 3 q.;Xx.x.b.g.D.!.Q.[.Q.`.!.!.[.k.a.%X%X%XC a <.*.R ( D O.[ p 9 ; 5 u u ",
"> > 6 9 6 i E ( W Q E E L [ { 4.= - - - r.c.N.z.l.z.z.z.z.j.n = @ % % 0.[ %.*.E L L E [ p i u & u u ",
"u 7 7 9 2 9 Y W W Q R R H / Q 9.o X + # C =X*X*X>X<X*X*X>X>Xl   X +   0.I Q +.I / E W T 0 ; > ; u u ",
"6 6 7 > 2 a T Q Q [ Q _ ( / W ;.q e e f >.4.3.5.3.3.3.3.4.5.B f e e q 9.T $.%.U ) E ! X.q 6 u u u u ",
"> > u > 2 u Q +.U U I E L E R E U T Q [ U G e x E U U S F S E H U U { { I I [ t L G E o.p 5 9 & u u ",
"> > u 9 5 0 W _ D E D E E E ) U ` R R Q E F U U E Q U S F F #.F I W W Q P ` ( / ( F _ %.q & > & u u ",
"; ; 7 9 5 0 W _ / ( ( ( O.+.&.) :.@.( @.( @.@.&.+.+.&.R / ( @./ ! ] $.' _ / @.( ` _ ' $.q u > 3 u u ",
"; ; 7 > u u x G y G J J G e d r f d y e e J G r d d J e d e e y t r e r e e J f t d r r 9 u & 7 u u ",
"9 9 5 > : : w * & ; ; ; 9 & > 2 , 9 * 2 ; ; * , & & 5 6 ; ; ; ; & & u & ; > * 2 : : & > ; u 9 6 u u ",
"u u 9 9 u u u u u u u u u u u u u u u u u u u u u u u u u u u u u u u u u u u u u u u u u u u u u u ",
"u u 9 9 u u u u u u ; u u u u u u u u u u u u u u u u u u u u u u u u u u u u 2 u u u u u u u u u u "
};
