/* XPM */
static char *bb6fb105d453475ae510bd254ec8f406UwQbAVpAhDsac8ZL[] = {
/* columns rows colors chars-per-pixel */
"50 50 241 2 ",
"   c #00060A",
".  c #020C0E",
"X  c #16160A",
"o  c #040D12",
"O  c #070E15",
"+  c #041214",
"@  c #0A1416",
"#  c #04141A",
"$  c #09161A",
"%  c #051A1C",
"&  c #0B1C1D",
"*  c #0A1A16",
"=  c #131E19",
"-  c #22180F",
";  c #0B211E",
":  c #14251E",
">  c #192518",
",  c #26261B",
"<  c #041D22",
"1  c #0B1D22",
"2  c #071B26",
"3  c #111E22",
"4  c #121F28",
"5  c #052325",
"6  c #0C2323",
"7  c #0C2925",
"8  c #0C242B",
"9  c #0D2C2B",
"0  c #05272C",
"q  c #122424",
"w  c #142A26",
"e  c #12252A",
"r  c #132B2B",
"t  c #1A2D2C",
"y  c #1A2925",
"u  c #14322D",
"i  c #1B332E",
"p  c #0C2531",
"a  c #0D2B33",
"s  c #062934",
"d  c #132D33",
"f  c #1A2E35",
"g  c #152B38",
"h  c #0E3333",
"j  c #0D363A",
"k  c #153333",
"l  c #1C3533",
"z  c #1B3935",
"x  c #15343C",
"c  c #1B343A",
"v  c #143A3D",
"b  c #1C3B3B",
"n  c #153B36",
"m  c #24362D",
"M  c #213534",
"N  c #233A35",
"B  c #223D3B",
"V  c #293E3C",
"C  c #263A37",
"Z  c #292E2B",
"A  c #4D3321",
"S  c #1C413B",
"D  c #13423C",
"F  c #23423D",
"G  c #2C433C",
"H  c #2D4638",
"J  c #33473B",
"K  c #364C39",
"L  c #634233",
"P  c #143541",
"I  c #1B3541",
"U  c #143C44",
"Y  c #1C3C44",
"T  c #153D49",
"R  c #1C3F4A",
"E  c #0F3A43",
"W  c #233D43",
"Q  c #233D49",
"!  c #253843",
"~  c #1C4242",
"^  c #1C424C",
"/  c #194749",
"(  c #1B4A53",
")  c #184752",
"_  c #1C5359",
"`  c #18555C",
"'  c #0F414A",
"]  c #244343",
"[  c #2A4542",
"{  c #244944",
"}  c #2C4A45",
"|  c #23434B",
" . c #254A4C",
".. c #2C4C4B",
"X. c #2A464B",
"o. c #324E4A",
"O. c #334A46",
"+. c #2C534D",
"@. c #24514A",
"#. c #33524D",
"$. c #3B544C",
"%. c #395447",
"&. c #254551",
"*. c #2A4C55",
"=. c #274A54",
"-. c #324C55",
";. c #2D5552",
":. c #2B5955",
">. c #24535B",
",. c #2B545C",
"<. c #285759",
"1. c #335453",
"2. c #335A54",
"3. c #3C5C55",
"4. c #345C5A",
"5. c #3C5C5A",
"6. c #375558",
"7. c #3B635C",
"8. c #37655A",
"9. c #1E5B62",
"0. c #2C5B63",
"q. c #265A64",
"w. c #345C64",
"e. c #3B5C63",
"r. c #385864",
"t. c #2C646C",
"y. c #2B636A",
"u. c #3B6564",
"i. c #3C6A64",
"p. c #34636C",
"a. c #3B646D",
"s. c #3C6C6A",
"d. c #356764",
"f. c #3E736C",
"g. c #2E6D74",
"h. c #336B73",
"j. c #3A6B74",
"k. c #386772",
"l. c #3C747B",
"z. c #3A7378",
"x. c #43594A",
"c. c #415E5A",
"v. c #475E52",
"b. c #43635A",
"n. c #43695E",
"m. c #4B6657",
"M. c #516857",
"N. c #536B54",
"B. c #465D66",
"V. c #436463",
"C. c #436B64",
"Z. c #4A6C64",
"A. c #446C6B",
"S. c #4B6E6B",
"D. c #466569",
"F. c #546D62",
"G. c #43726C",
"H. c #4C736B",
"J. c #4E7362",
"K. c #53766D",
"L. c #597668",
"P. c #466C73",
"I. c #447473",
"U. c #4C7473",
"Y. c #43737B",
"T. c #4B7A78",
"R. c #547B74",
"E. c #5C7E73",
"W. c #547B7C",
"Q. c #5B7D7B",
"!. c #567576",
"~. c #647B6C",
"^. c #657D79",
"/. c #645341",
"(. c #825D48",
"). c #8C6858",
"_. c #977269",
"`. c #4E817C",
"'. c #5B8273",
"]. c #59827B",
"[. c #55827C",
"{. c #58806C",
"}. c #638374",
"|. c #63847B",
" X c #69887A",
".X c #748977",
"XX c #73927E",
"oX c #AC816B",
"OX c #3B7A81",
"+X c #4A7C85",
"@X c #577B81",
"#X c #46858A",
"$X c #5C8483",
"%X c #5C8A85",
"&X c #568687",
"*X c #578A94",
"=X c #599191",
"-X c #648483",
";X c #648D84",
":X c #638D8C",
">X c #698A86",
",X c #6C9283",
"<X c #6C938B",
"1X c #68988E",
"2X c #719483",
"3X c #74958A",
"4X c #759C89",
"5X c #7C9988",
"6X c #6D9393",
"7X c #6D9A94",
"8X c #669797",
"9X c #739D93",
"0X c #749C9B",
"qX c #779A96",
"wX c #6C8D8D",
"eX c #7BA298",
"rX c #73A096",
"tX c #7CA4A3",
"yX c #75A7A3",
"uX c #7FB0AD",
"iX c #82A59B",
"pX c #85A899",
"aX c #83ACAA",
"sX c #86AAA6",
"dX c #8AB3A9",
"fX c #94B9AA",
"gX c #8CB4B3",
"hX c #8BB8B5",
"jX c #93BAB3",
"kX c #96BBB7",
"lX c #94ACAC",
"zX c #819288",
"xX c #99C2BB",
"cX c #A2C6BA",
"vX c #9AC9C5",
"bX c #A7CCC7",
"nX c #A7D1C8",
"mX c #B6D4CB",
"MX c #AFD6D2",
"NX c #ADE0D9",
"BX c #C3E3E2",
/* pixels */
"O @ @ @ $ & q q i N l H $.%.v.m.~.F.F. X'.'.8.8.'.n. X5X5XL.2X}.J.,X XXX{.%.M.$.#.] ] 9 r 6 3 $ @ @ ",
"@ @ @ & & & 6 q w l O.O.$.x.L.M.L. XL.5X X4X{.4XeX,X XpX5XXXpX}.J.4X4X4X2X%.L.b.#.[ X.x k r 3 @ $ $ ",
"@ + @ & 3 1 q l l i B o.3.b.F.L.}.~.}. X2XfXfXfXcXfXfXfXpX2X5XXX,XpX,XpX4Xm.L.m.#.] ..c k k r q & & ",
"+ + $ & q q t [ F o.$.c.H.E.>XiX|. X3X3XbXjXdXdXfXcXmXnXkXmXxXfXiXpX9XiX,X}.J.o.3.} } b 9 9 7 & & % ",
"# % 6 6 t i l } $.#.3.} Z.C.H.A.!.wX$X$X6XI.U.W.e.W.!.@X-XeXtXaXsXjXiXpXqXL.L.b.E.b.8.2.S z t q & % ",
"% % 6 q l N u B } } 3.2.7.A.].G.A.U.I.u.s.s.P.W.@XD.A.4.u.u.U.rXQ.6X].<X,XE.L.,X>XZ.n.8.S z k r 6 1 ",
"% % 6 6 i l r B F #.+.4.4.$X:Xi.I./ d.T.$X7XaXdXgXxXgXvXjX0X1X8.u.U.%X;X,XxX2XfX,XF.Z.n.S S z u r 6 ",
"% % 6 6 u i i o.#.7.8.H.G.U.G.:.:.d.f.dXbXkXgXdX-XU.eX0XkXnXvX%XU.u.i.].].<X XeXL.n.n.n.S { B l r q ",
"& % w i l F G %.3.b.Z.C.C.4.@.d.0XI.:XhX$X!.] W b x x k 5.D.qXaX0XtXA.:.%X7X XeXE.E.b.2.7...[ B l w ",
"; 6 w l G O.J $.Z.E.].R.A.:.T.aX@XW.:X*.d < 2 % 2 < < 8 < # X.-XtXaXuXI.G.1XsXcX2XpX|.|.K.5.1.[ l w ",
"q w t N G $.O.3.E.'.R.].i.C.aX6XgXQ.8 < 1 1 4 1 + 1 + 1 + % + % 6.gXvXhXi.T.9X;XdXcX'. XZ.#.} W l w ",
"q w i N N o.#.b.n.;X].R.8.7X;XtX>Xl # 3 1 $   O O $ @ + o + O o 8 U.kXvXrX:.1XeXdXxX'.'.Z.#.} W k r ",
"q q M V u [ #.n.K.H.].A.H.9XdXdXo.# e + O O o o o   . . O o O + + 8 $XhXhX%X7.7X,XpX'.K.3.{ k l 9 < ",
"q w N [ 7 ] 2.V.U.U.8.2.;XsXMXR.5 6 $ + O   O o O @ @ +   o . o % % ..aXvXnX&X;XeXfXeX<XH.2.r ] d 8 ",
"; q N V 5 ] ..4.2.U.R.8.9XjXdXF 6 e 1   @ + o @ $ + & q $ & o . $ 6 9 :XxXvXtX%X,XeX9X;XR.4.5 b r 5 ",
"* q t l 5 v ~  .@.I.i.:XqXxXR.9 7 e + o 1 1 # 1 6 6 r 6 & 1 $ + 1 1 r e.hXMXhX].$XrX9Xn.7.+.9 k r 5 ",
"& q M k %  .,.<.<.&X;.6XgXbXZ.7 r l 1 + 1 e % d x 0 I k d ! 8 # 1 # d S.gXvXxX:X%X0XaXR.Q.1.9 F b k ",
"q r N b 5  .<.p.<.&X4.:XMXlXZ.u r f 8 < B g a Y ^ U ,.Y x Q p ! X.4 8 6X0XxXNX%X&X:XqX-X!.5.u b b k ",
"6 w l l 5  .4.u.:.u.4.0XMXjXC.k r f e 4 ! I I &.*.*.,.&.&.| Y e.B.d 9 0X$XyXvXI.d.4.U.|.-XZ.7 o.] b ",
"q t l l 5 S { 1.+.C.i.$XtX6Xu.k 8 ! d p c I P T T ( ^ T T T P =.6.0 0 U.&X8X7Xd./ 7.~ 5.5...7 F B l ",
"& % 6 r 7 u u F ..2.{ [.$XA.e.5 2 ! g g Q &.T ) >.) _ ' ) p.T s x < h 8.`.`.d.d.:X{ k l 1.[ l 7 5 % ",
"q q r z z F G $.Z.K.+.7XhX$Xu.a 8 I g P r.0.0.j.j.t.l.h.q.j.q./ T.^ j T.=XyX&X$XU.;.c b [ c.} ] k 9 ",
"& w t u k F } 3.b.Z.i.<XjX$XwXY p Y s P a.p.t.l.OXt.g.l.q.t.q.>.p.U v 8XyXhX6X%X:X~ ] ] c o.F u k 9 ",
"t M C [ } #.n.|.<X<XH.dXcXR.qX} 0 | s P p.p._ 9.g.` g.t.` h._ ) >.j / :XaXvXtX6X$X;.k k c.5.#.F z k ",
"t M V } F } 2.C.].R.H.jXkX>XpXl a | j U Y.j._ h.l.t.t.y.( 0.,.,.,.x ^ qXkXNXgX6X..-XV.b 1.K.3.#.} B ",
"; q w t r ] 2.i.T.+.#.>X XL.}.z 9 *.T U Y.j.q.l.+X>.q.Y.a.w.,.,.e. .v qXgXsX$XwX] Q.5.] H.} ] #.] z ",
"i N V M k ..4.s.%X+.R.cXmXmXpXo.d -.Y x w.q.>.q.p.>.w.0.^ r.e.x p + -.sXsXQ.S.kX1.Q.!.S.Q.k z F l 9 ",
"i C O.N u  .:.d.s.{ R.bXmXmXpXo.f -.x x ^ ( ) ( ( T *.&.I &.X.I Q k W qXBXkX9 dX1.4.Q.S.D.k S F z u ",
"t l V l r } 2.i.R.@.;.<XqX<XQ.b d -.I R w.,.>.a.k.E s 0 2 2 < e.@X] W -XbXkX..+.S C.6X6XqXk 1.1.F z ",
"& & 6 r u #.7.H.R.@.~ R.$X[.U.| a -.Y ^ &XY.p.+X&X( ^ P 0 Q g -.D.c ] 6X0XbX:Xn 9 7.6X$XQ.z 9 b u 7 ",
"q q i G #.Z.E.2XqXH.@.`.8X0XY.R a =.T U &Xl.t.Y.8Xp.Y.w.P r.| 0 5 # ~ qXxXnXsXH.7.tXhXjXsXwXZ.#.l u ",
"r r u [ [ #.Z.}.|.R./ f.T.*Xk.U a | | U p.0.q.h.j.q.j.0.=.a.*.U *.h ~ 7XjXxXjXu.u.kXkXuX6XS.5.} z u ",
"6 7 t u z z } K.].:.D I.&XY.I.^ a Q Y ^ +Xj.p.*X*Xk.*X+X>.+Xa.a.wX .U $XjXkXiXu.u.I.T.s.d.@.] r 5 5 ",
"6 7 r u 7 k z  .2.~ / I.:XW.A.| 2 Q Q P r.w.0.k.Y.p.k.w.,.,.( a.@XQ j :XiXcXsXu.T.s.G.8.<.,.5 k k 9 ",
"w t l [ 7 ] #.5.H.8.n G.Q.W.A.X.8 ! I g =.) ) ) ) ) ) E U ) ^ 0 2 + U T.tXjX0X4.s.rXsX<XR.A.8 W B l ",
"q e l [ 7 B 1.V.S.4.n A.].V.U.] 5 c a T p.q.q.h.h._ *Xl.>.Y.k.=.D.Q U Y.].sX0X4.8.G.R.H.V.1.8 l B k ",
"6 6 r k 7 t b F +.+.h S.6.1.D.W < I j / Y.l.g.#X#Xg.=X+X_ z.j.y.P. .0 :XwXlXqX#.8.7.7.;.4.] % V k d ",
"% 1 6 & 7 u b k ] n { H.Q.-X^.W < Y v ' z.h.9.OX*Xl.#Xl._ z.p.) ,.v I B.-X-XH.S ] #.v a 0 h w & 6 < ",
"% q r r k V #.#.5.{ { H.|.3X!.l % c x U j.h._ OX#X` *Xl.( Y.) ^ =.p X.!.;X1X[.+.} !.X.] | k i 6 6 6 ",
"& 6 6 r k l } } } n u { o.} O.r 1 c x x w.p.' y.h._ Y.0.U ,.^ P Q g 1 V.G.8.f.u.W B.X.v ~ k r r r r ",
"6 r r 7 6 k l k F z +.#.} F #.N # f g x ,.w.0.j.Y.p.a.,.=.=.R I p # W K.G.G.f.w.*.V.] F F r 5 d l r ",
"6 t k t 6 t l B ] #.S.Q.>X!.b.l + e f c e.a.w.a.@XP.!.P.e.r.&.g e % u C.;X7X:X&X$XU.V.} #.O.1 e e 1 ",
"6 e w 7 % r k z z ] #.3.Z.c.#.N + 1 1 8 X.&.^ =.e.| X.Y a d g < q % k 7.A.U.W.U.1.1.} ] u i * @ q 1 ",
"6 6 6 % % r t r b b F } b.$.G l + 1 1 8 c c a d c d B c e e e 1 & + u 7.u.U.Q.S.V.o.| b u : X , 3 & ",
"1 6 6 1 % e r k k z F #.c.$.G w . @ * & e e & q 6 3 3 & $ * & & $ + r 1.5.D.F.b.c...( j u X L _.Z q ",
"& & 3 1 # 6 8 t r k b B F [ V w + * @ @ + + o $ . + . + @ @ o + + . q [ { 1.c.$.} ] h u , /.oX)., % ",
"$ # # # # 1 1 6 r r r t l M t & * : : w w t q w m t y y : : : : w & q N d v W d l w y > A oX(.A = # ",
"+ + @ $ @ 1 & 1 1 7 6 w w w M G J %.%.v.F.^. X.XzX.X.X.XM.M.m.v.$.$.J V z h 5 5 5 ; = X ).(.- , : @ ",
"@ $ & 1 q q e w t t t t M N V J %.%.v.M.L.L.~..XXXXX.X.X~.F.M.m.x.O.J G B B l f e q y Z Z , X * $ $ ",
"# $ & 3 q w e w t t t t t i m m m C H K x.K v.N.N.N.N.N.x.K H H H m m i i i t t t w y t t q & q 1 & "
};
