/* XPM */
static char *_e171bd753f54419adf2c2ac3f1212d8zxSLRO7YoxiAxEP9[] = {
/* columns rows colors chars-per-pixel */
"50 50 146 2 ",
"   c #1B1C16",
".  c #1E1E1D",
"X  c #261616",
"o  c #231C16",
"O  c #211D1D",
"+  c #291B1D",
"@  c #1B2316",
"#  c #17231F",
"$  c #1D221D",
"%  c #22211E",
"&  c #1E1E21",
"*  c #221E21",
"=  c #291F22",
"-  c #211E29",
";  c #1D2222",
":  c #1D252A",
">  c #17292B",
",  c #1E2A2C",
"<  c #0F3F3F",
"1  c #1A3436",
"2  c #143B36",
"3  c #1C3B37",
"4  c #1C353B",
"5  c #1D3A3B",
"6  c #212021",
"7  c #23252C",
"8  c #232A2C",
"9  c #222631",
"0  c #20343C",
"q  c #223B3D",
"w  c #0F403D",
"e  c #10423F",
"r  c #0E3F44",
"t  c #1F3240",
"y  c #143E45",
"u  c #1A3C46",
"i  c #153E4B",
"p  c #193E4C",
"a  c #0C3F50",
"s  c #163E53",
"d  c #1A3E53",
"f  c #203341",
"g  c #223A40",
"h  c #203E53",
"j  c #273F59",
"k  c #154345",
"l  c #1A4546",
"z  c #154946",
"x  c #1A4A46",
"c  c #16434B",
"v  c #1A444C",
"b  c #164A4B",
"n  c #184848",
"m  c #1A4848",
"M  c #18484A",
"N  c #194B4A",
"B  c #184A4B",
"V  c #1A4A4A",
"C  c #1B4B4B",
"Z  c #1C4A4A",
"A  c #1E4A4B",
"S  c #184C4A",
"D  c #18494D",
"F  c #19494D",
"G  c #1A4A4C",
"H  c #1B4B4D",
"J  c #1C494C",
"K  c #1D4A4F",
"L  c #1A4E4C",
"P  c #194F4F",
"I  c #1C4C4C",
"U  c #1E4E4E",
"Y  c #1B4B4C",
"T  c #17544D",
"R  c #17504A",
"E  c #1C514D",
"W  c #164451",
"Q  c #124354",
"!  c #174255",
"~  c #174151",
"^  c #1D4350",
"/  c #1C4352",
"(  c #1E4356",
")  c #194454",
"_  c #1C4353",
"`  c #154C51",
"'  c #164D50",
"]  c #154F50",
"[  c #154F51",
"{  c #174F50",
"}  c #174E51",
"|  c #114B56",
" . c #174A53",
".. c #194850",
"X. c #1A4951",
"o. c #1C4B51",
"O. c #1B4C51",
"+. c #1A4D51",
"@. c #1B4E51",
"#. c #184F52",
"$. c #1C4C50",
"%. c #1D4F50",
"&. c #1C4D52",
"*. c #1D4E53",
"=. c #1C4F53",
"-. c #1F4F53",
";. c #1C4C52",
":. c #1C4259",
">. c #1E4459",
",. c #1D4B59",
"<. c #165252",
"1. c #165354",
"2. c #195150",
"3. c #185351",
"4. c #1A5251",
"5. c #185253",
"6. c #1D5051",
"7. c #1C5350",
"8. c #195452",
"9. c #1C5451",
"0. c #1B5054",
"q. c #1A5154",
"w. c #195354",
"e. c #1B5354",
"r. c #1A5156",
"t. c #185454",
"y. c #1B5654",
"u. c #1D5555",
"i. c #1D5152",
"p. c #21454D",
"a. c #214C4D",
"s. c #294D4D",
"d. c #22504D",
"f. c #22524E",
"g. c #244453",
"h. c #224454",
"j. c #204852",
"k. c #214C52",
"l. c #284855",
"z. c #21465A",
"x. c #284759",
"c. c #234B5B",
"v. c #235253",
"b. c #285254",
"n. c #225159",
"m. c #2A555B",
/* pixels */
"% + * ; . $ $ = & 6 * * * * 6 * 6 6 * * * * * * 6 * 6 * 6 O * - 6 6 & * 6 * 6 & # $ $ $ & & ; 6 6 6 ",
"$ O 6 ; * % ; * $ $ $ $ $ $ $ $ $ $ $ $ $ $ $ $ $ $ ; $ % @ $ ; $ $ $ $ $ $ $ $ * + O 6 = 7 : 6 6 6 ",
"$ O 6 6 * ; : & O O . . . . % O * O O O O O O O O O 6 . O O O . O O O O O   O O & O . ; * * $ . 6 % ",
"$ * 6 6 O : 1 4 1 4 4 4 4 4 q 4 4 4 1 4 1 4 4 5 5 5 g 1 4 1 5 1 4 5 4 4 4 1 4 4 2 3 3 3 : . $ 6 % % ",
"$ * & 6 . , m O.H u.0.1.1.<.8.P 0.0.] 0.P 4.] 0.4.O.0.] 4.4.y.0.P 4.] ] ] ] u.0.T 6.9.f., $ $ 7 6 6 ",
". * 6 ; . > D | z I N M M M H z N D z I N J c v v v v z N x D D z N M M z N N N J v D Z , $ . & 6 % ",
"6 * $ ; . : c a e z k k k z N z z z k Z k c y i c i c k x k k i k M z z z z z w v p i v : % . 6 6 6 ",
"6 * . 6 * 9 g.s D O.v c c ..0.] 6.&.z o.c / i ( :.s ) ..&.c W ! D O.O.&.&.&.&.z / d Q j.: O . 7 6 6 ",
"$ . * $ O : z k M O.c c c c z H D k N &.c c c k p p c c k.v i :.z v D D z N &.z ( i i k : O 6 $ 6 6 ",
"% 6 * ; * : N D M O.c i i v v M v k M D y c v v P D P b 4.D i ! k v D D z I k.k / p o.E , . % ; 6 6 ",
"% 6 * ; * 8 H D z 6.D c c ^ o.D o.D H &.c v v I E H H M &.v p d v k.k.J v a.v.k c i o.T , . O ; 6 6 ",
"6 6 * . O : N D k z k r y y c y i y z N y k y k N z N z Z m v / y c i i y l Z y D k N S , . * $ 6 6 ",
"; 6 * $ O : M c N H H &...c ^ _ _ c D v.I v.D E O.D O.b P R S S p / _ / v Z v.k.v.D I T 8 6 6 ; 6 6 ",
"$ 6 * $ O : H  .z z M O.v i _ _ ( c z H D &.M 6.,.X.,.M D S S z c / d ( v v J k.&.J &.9.8 . * ; 6 6 ",
"; 6 * $ O : O.,.y k k D c i _ s ( _ z D z D k H J v ^ i c l v k c ( d ( ^ v v D v c I E 8 . O ; 6 6 ",
"6 6 * $ O : O.,.v D D D c c ) i d _ D O.D D k u.T b 0.c c ..o...i ( d _ ( J &.D j.v &.E 8 O * ; 6 6 ",
"6 6 6 $ . : v _ k Z m p i i c k v c z N y p u m v v v c D k k y i ^ i c v k m l p.v m Z 7 . O . 6 6 ",
"6 6 6 $ . : v c k v c i i k D N o.z M D y p y p v c c c D k y i v &.J &.I N J k v p v Z 7 & 6 6 6 6 ",
". . 6 ; 6 7 J ....,...c c D &.I &.D H &.c / i i ~ i c z I z c ( z I I v.6.&.v.c g./ ^ J 7 & * 6 6 6 ",
"6 6 * $ O : v c H &.c c c c D z N M H &.c / i c c c c v I z c ( k N M N M Z n.k h d ^ J 7 & * 6 6 6 ",
"6 ; O $ * 8 I ..N I v c _ ..o.D x N I k.c ^ c D O.D D M H z c d v o.J I l Z b.l g.^ j.a.8 % O . 6 6 ",
"$ $ * ; * 8 v.,.I k.v c _ ) ,...N x I k.v c c N T H H M H z c d v k.o.a.Z m a.l g.v k.d.8 $ O . 6 6 ",
"6 6 6 . . ; z k k v p i i c v z v k c ^ i i y M z M v c v c d d k J v v v v v p u y v x 7 $ % 6 6 6 ",
". ; 6 ; * : N H p j.h.j.j.j.v.I c.....c.( ( v E N &.,._ ( ( h.h Z v.a.&.o._ z.z.l.j.c.E 8 $ * * 6 6 ",
"* O 6 $ . : N O.i c c v c o.n.J c.c k v p ^ c ] M O...i c v v c v v...o.o.c v v v v n.v.8 . . * 6 6 ",
"* . * ; . : I ,.c D D D D D I z c.z D J o.o.N N H O.O.c D N o.J D v.D D o.v k.k.Z J v.f.8 $ % 6 6 6 ",
"6 6 * ; & : J ,.N 6.v.v.E E f.x c.D E 6.v.v.I R H ....z I I v.v.I b.I I &.I n.n.b.v.b.f.8 $ $ $ 6 6 ",
"% 6 * $ O : v ) k N N z z N I x J z N z z v l z v c c k N z N D k I N N N N I l a.v a.I 8 ; . . 6 6 ",
". . * ; * : v _ l J v c c v a.a.a.Z I N c _ p p / _ _ v J z c c z a.I f.E I v.l h.p v p.7 * 6 * 6 6 ",
"$ $ * ; * 7 v _ I n.j.^ ^ j.c.v.d.a.v.k.^ ( ( _ / _ ..v k.v c _ Z v.v.v.v.v.b.Z x.h.g.a.7 & * * 6 6 ",
"; ; * $ O : N c N &.v c c c v N N z I J v p i c c k c z N z c d k v v N l Z n.l h.v h.p.7 . % 6 6 6 ",
"; ; * $ 6 8 I ,.H v.v c ^ D &.I O.M I k.v v D H 4.4.4.S E z ..( v j.o.a.a.k.m.v k.k.b.b.8 $ $ $ 6 6 ",
"$ $ * $ * 8 I O.m I v v v v j.j.p.v l Z v v v Z N z I l Z l c ! u v p.h.v p.a.l v v j.a.8 ; . 6 6 6 ",
"% 6 * $ . : x D l N M D v v c c v k z N v J v M M z D k Z m v ..y v v c v v a.Z a.Z k.a.8 . . 6 6 6 ",
". . O $ 6 8 v.,.J v.6.u.&.v ^ p j.v D 6.&.v.I T &...,.v a.f.f.f.c / _ ^ v o.v.v.v.v.b.b.8 $ . * 6 6 ",
"6 6 * $ O : I ..k M M M v ^ j.( ( v z D z D M R H ..o.c N N x x _ _ _ / c v J D x N v.f.8 $ % 6 6 6 ",
"6 6 * $ * : I ..v D z z v c ( d h.v v J z D v I I I &.c z N v v _ _ d / v v J Z Z N v.f.8 $ O % 6 6 ",
"$ . * $ 6 8 k.,.m k.D v c p / i h.v j.c.v j.v &.Z J ,.c D J ..,._ c c v v v k.j.k.j.c.a.7 $ % % 6 6 ",
"$ $ * $ . : c i < z k i i p v z c k z D c c i c c i c y z k i ~ y c c v c l Z k p i c v 7 ; 6 6 6 6 ",
"; ; 6 $ 6 7 v _ N 6...c p v &.T c.H N O.c / p _ ( ~ ..c J v c p D &.6.v.&.I I z ( d ^ J 7 ; * . 6 6 ",
"$ ; . $ 6 : v ( M &.v i v v a.x Z k E a.v h.p p d _ c z c...i ! N Z I I x I n.v j h v m 7 * 6 . 6 6 ",
"6 6 * $ % : M ..S H c ~ ~ ~ ..D D z E O.y ^ c v v z M z 6.z c ..c c v z k D c.k ^ c P Z : O O O 6 6 ",
"* * * $ % 8 x H I I v ( ( ......J D 6.k.v ^ v a.f.E R N f.v v ^ ..k.,.J v k.b.l j.v T d., * 6 6 6 6 ",
"$ ; 6 ; 6 7 m &.l l v v c v v z m l Z p.y u l l I a.I z v i p d l v v l k l p.y h.u J s.8 & 6 O 6 6 ",
"$ $ 6 ; & : D ,.i c c c c D I z ..v c v i c v J D &.&.c ~ ~ ( d z N N D z c ..c ( p &.b., & $ . 6 6 ",
"+ O * ; & : D ,.d >.:.( ( c.n.I c.,._ ( ( z.,.n.k.n.n.v ^ ( c._ I 6.,.n.,.) ,.c. .o.n.v., ; $ % 6 6 ",
"O * O ; % 6 5 5 1 t 4 f 4 0 q 5 g 0 1 4 4 f 4 q q q g 4 0 4 0 1 1 5 5 4 4 1 4 0 4 q 5 3 : ; $ * 6 6 ",
"; ; $ $ + X 6 . . .   O O . $ $ . $   % O O   @ O   . * * . O .   6 . . . O O o + + . $ O 6 ; * 6 6 ",
"6 6 6 6 6 6 6 6 6 6 6 6 6 6 6 6 6 6 6 6 6 6 6 6 6 6 6 6 6 6 6 6 6 6 6 6 6 6 6 6 6 6 6 6 6 6 6 6 6 6 ",
"6 6 6 6 6 6 6 6 6 6 6 6 6 6 6 6 6 6 6 6 6 6 6 6 6 6 6 6 6 6 6 6 6 6 6 6 6 6 6 6 6 6 6 6 6 6 6 6 6 6 "
};
