/* XPM */
static char *c070041697544820b88be79b354af382yKRXnk8n3QQ8kCV0[] = {
/* columns rows colors chars-per-pixel */
"50 50 224 2 ",
"   c #010202",
".  c #010208",
"X  c #040A0A",
"o  c #070807",
"O  c #081418",
"+  c #0F1110",
"@  c #1E201F",
"#  c #061D26",
"$  c #1D1822",
"%  c #03232D",
"&  c #08252B",
"*  c #182427",
"=  c #042531",
"-  c #0B2433",
";  c #032B35",
":  c #0A2B35",
">  c #042D3B",
",  c #0B2E3B",
"<  c #062539",
"1  c #1B2936",
"2  c #05323E",
"3  c #0B333D",
"4  c #11343D",
"5  c #123134",
"6  c #242524",
"7  c #21293A",
"8  c #282A39",
"9  c #3E393E",
"0  c #383734",
"q  c #7D061E",
"w  c #77051A",
"e  c #5A142C",
"r  c #56122B",
"t  c #5E1233",
"y  c #4D1629",
"u  c #7F0722",
"i  c #7C0823",
"p  c #681735",
"a  c #73142B",
"s  c #433637",
"d  c #4D3034",
"f  c #722329",
"g  c #042C43",
"h  c #033342",
"j  c #0B3443",
"k  c #033A44",
"l  c #0C3945",
"z  c #0D3749",
"x  c #0B3A49",
"c  c #113544",
"v  c #123944",
"b  c #193943",
"n  c #113A49",
"m  c #163648",
"M  c #2A3946",
"N  c #3E3940",
"B  c #202C44",
"V  c #433E42",
"C  c #1C414A",
"Z  c #27474E",
"A  c #284854",
"S  c #314D56",
"D  c #31444B",
"F  c #534948",
"G  c #4C5B62",
"H  c #5C717C",
"J  c #4E6870",
"K  c #766868",
"L  c #6D5857",
"P  c #85001C",
"I  c #8E021C",
"U  c #8A0015",
"Y  c #91021F",
"T  c #B10B1C",
"R  c #8C0223",
"E  c #8B0A2C",
"W  c #880728",
"Q  c #940223",
"!  c #9A0224",
"~  c #94042B",
"^  c #970A28",
"/  c #870D31",
"(  c #940F34",
")  c #8A1834",
"_  c #98153D",
"`  c #A80B29",
"'  c #B50A27",
"]  c #AB1636",
"[  c #B41634",
"{  c #892738",
"}  c #AF203C",
"|  c #D72737",
" . c #ED3C3D",
".. c #E83B3B",
"X. c #F33C3C",
"o. c #F43637",
"O. c #CF403A",
"+. c #EB423D",
"@. c #F3423E",
"#. c #9A3046",
"$. c #A52B4F",
"%. c #D43D43",
"&. c #DC3846",
"*. c #DB2241",
"=. c #EC3D44",
"-. c #E43D42",
";. c #F23D42",
":. c #F53E49",
">. c #F93C43",
",. c #EB3E51",
"<. c #B2485F",
"1. c #AA4D66",
"2. c #BB4B63",
"3. c #B25768",
"4. c #806E7C",
"5. c #A96F77",
"6. c #D34142",
"7. c #ED4145",
"8. c #EB464A",
"9. c #E54344",
"0. c #F44144",
"q. c #F4424A",
"w. c #FD434A",
"e. c #F34255",
"r. c #5D7A82",
"t. c #637C86",
"y. c #697C86",
"u. c #727181",
"i. c #B67384",
"p. c #BA7788",
"a. c #AE7981",
"s. c #D37A8B",
"d. c #6E838B",
"f. c #668289",
"g. c #788388",
"h. c #768C95",
"j. c #749197",
"k. c #7E9DA7",
"l. c #82939B",
"z. c #83989D",
"x. c #848692",
"c. c #859BA3",
"v. c #869DA8",
"b. c #95A4AE",
"n. c #91A9B0",
"m. c #A8B4B6",
"M. c #B9BABA",
"N. c #CD929A",
"B. c #E78B97",
"V. c #E6989B",
"C. c #EFA69F",
"Z. c #C785A0",
"A. c #ED99A7",
"S. c #CAA4A7",
"D. c #D7A6AA",
"F. c #C8B7B8",
"G. c #F8B8C6",
"H. c #BCC8C9",
"J. c #B2CBD6",
"K. c #B3CED7",
"L. c #CCCBCC",
"P. c #C4C5C7",
"I. c #CCCED6",
"U. c #CAD3D9",
"Y. c #D6D5D8",
"T. c #EDCAC8",
"R. c #FFCBD8",
"E. c #FBD4D4",
"W. c #FADBDA",
"Q. c #FBD4D4",
"!. c #EED4D5",
"~. c #D7DDE2",
"^. c #CFDCE2",
"/. c #FFDAE2",
"(. c #E9DEE2",
"). c #CAE3E9",
"_. c #D5E2E3",
"`. c #D9E9F3",
"'. c #E4E5E4",
"]. c #E6E9E6",
"[. c #EAEAE6",
"{. c #E5ECEB",
"}. c #EDEDED",
"|. c #EBE6E8",
" X c #FDE6ED",
".X c #F2EDED",
"XX c #FDEAEC",
"oX c #F1E4EE",
"OX c #ECF2ED",
"+X c #E4F1E7",
"@X c #F2F1EE",
"#X c #FBF5ED",
"$X c #EDEEF2",
"%X c #E3ECF1",
"&X c #F3EEF2",
"*X c #FCEDF3",
"=X c #FFEEFB",
"-X c #F1EFFA",
";X c #E6F1F1",
":X c #EDF3F2",
">X c #EDF6FA",
",X c #EAF9FA",
"<X c #F4F4F4",
"1X c #FCF4F5",
"2X c #F5FAF5",
"3X c #FAFAF6",
"4X c #F5F6FA",
"5X c #FDF5FB",
"6X c #F6FEFF",
"7X c #F4FDFD",
"8X c #F8F8F8",
"9X c #F9F9F9",
"0X c #FAFAFA",
"qX c #FDFBFA",
"wX c #FEFDFA",
"eX c #FBFEFE",
"rX c #FDFDFD",
"tX c #FFFFFD",
"yX c #FEFEFE",
"uX c #FEFFFF",
"iX c white",
"pX c #FFFEFF",
"aX c #FDFEFE",
"sX c #FDFDFD",
/* pixels */
"}.}.}.8XiXiX8X}.}.}.iXiXiX8X}.}.8XiXrXiX}.<X}.8XiXiX8X}.}.}.iXrXrX8X}.{.2XiXiXiX<X.X.X8XiXiX2X}.}.}.",
"}.}.}.8XiXiX8X}.}.<XiXiXiX<X}.}.OXiXiXiX<X].}.8XiX8X8X<X&X&XiXiXiX<X}.}.}.iXiXiX}.}..X8XiXiX8X}.}.}.",
"}.}.<X8XiXiX8X<X}.<XiXiXiX<X<X}.8XiXiXiX}.<X<X8XiXiX8X'.}.<X8XiXiX8X}.[.<XwXiXwX.X}.<X8XiXiX2X<X}.}.",
"8X8X8X8X8X8X8X8X8X8X8X8X8X<X8X8X8X<X8X<X8X8X}.8X}.8X8XiXiX8X8X8X<X}.8XqXqX<X}.8X2X2X2X2X8X8X8X8X8X8X",
"iXiXiX8X}.}.<XiXiXiX}.}.}.8XiXiX8X}.}.}.iXiXiX<X}.[.<XiXiXiX<X].{.iXiXiX8X}.}.<XiXiX0X<X}.}.<XiXiXiX",
"iXiXiX8X}.}.<XiXiXiX}.<X}.iXiXiX8X}.<X}.iX'.<X8X}.}.8XiXiXiX}.:X;X_.6XiXiX}.}.}.iXiXrX<X}.}.<XiXiXiX",
"8X8X8X8X8X8X8X8X8X8X8X<X<X8X8X8X8X8X}.8XM.  F iX<X<X8X8XrX<X8X7Xd.* m.6X<X8X<X8X8X8X2X2X8X8X8X8X8X8X",
"}.}.}.8XiXiX8X}.}.}.iXiXiX8X}.}.8X8XiXM.    6 iXiXiX8X}.}.:XiXy.& % h.6X%XrXiXrX}.}.:X2XiXiX8X.X}.}.",
"}.}.}.8XiXiX8X}.}.:XiXiXiX<X<X}.}.iXM.. . . 6 1XqXwXwX'.:X7Xt.= v : l.6X<XiXiXiX}.}.}.8XiXiX8X}.}.}.",
"<X<X<X8XiXiX8X@X<X}.iX8X8X8X}.[.3XM.    o   6 0XwXwX<X:X,Xt.= v j = l.rX<XqX0XrX<X<X<X8XiXrX8X&X}.}.",
"iXrX8X<X}.<X8XwXiXwX@X8X.X8X8XwXF.    o     0 <X<X}.4X6Xy.# m j j = z.rX<X@X<X<XiXrXqX<X}.:X8XiXiXiX",
"rXiXiX8X}.}.@XiXiXwX.X[.].<XiXm.    . . . . 8 $X%X%X,Xy.- b j j j = c.rX8X}.}.}.iXiXiX8X}.}.<XiXiXiX",
"iXrXiX<X[.}.<XiXiXiX}.$X6X7Xm.# % 3 : , 3 = 3 S Z Z Z ; l 2 h x l = c.rX2X}.}.$XiXiXiX@X}.}.<XiXiXiX",
":X<X8X8XwXqX<X<X}.7X7X7Xn.D & 4 n > x h l l j ; > j > l j 2 j 2 l % l.6X<X8X2XrX8X<X<X8X0XiX8X<X<X<X",
":X}.}.8XiXiX8X$X$X>X;XJ # , j j j j j j , v v v v v j j , j j j j = l.7X<XwXiXiX<X&X}.<XiXiX8X&X}.}.",
"{.}.}.8XiXiX8X{.>X^.M & n x h k h l 2 j j ; l 2 h h h x j j j j j : l.rX<XiXiXiX{.$X}.8XiXiX8X}.}.}.",
"<X8X&X8XrXrX<X8X`.A , j c 4 3 3 3 j j j j j j j j j j j j j j j z < u.Y.}.wX8XrX<X5X1X8X3X8X8X<X8X8X",
"3X3XwX<X;X{.8XrXH < h h h g h h h h h h h h h h h h h h h h h 2 ; 8 p ( $.A.*X{.iXiXwX<X+X+X<XiXiXiX",
"rX6X6X>X;X(.T.D.d s V N N N N 9 9 N N N N N N N N N N N N N N 9 0 d { } ` W N.5XrXrXrX1X}.}.8XqXiXiX",
"5XrX5X XXXB.6...=.q.0.+.0.0.X.X.0.0.0.0.0.0.0.0.0.0.0.0.0.0.0.q.e.,.e.| ' ` ) G.1X6XrX8X}..X8XiXiXiX",
"$X$X$X5X1XV.%.w.:.:.7.7.7.7.=.q.7.7.7.7.7.7.7.7.7.7.7.7.7.7.7.7.....8.&.T [ ^ s.1X:X:X7XrXiX8X}.@X<X",
"[.@X].@X#XC.O.@.+...@.@. .;.;.;. . . . . . . . . . . . . . . .X.@.X.w.| ' [ ! 2.XX}.&X5XiXiX1XXX.X}.",
".X|..XrX1XV.%.7.8.9.+.+.+.7.7.-.7.7.7.7.7.7.7.7.7.7.7.7.7.7.7.7. .7.-.&.` ] ` 2. X|.}.7XrXrX,X+XOX}.",
"2X0X8X1X*XA.%.:.7.=. .;.0.-.8.9.7.;.;.;.;.;.;.;.;.;.;.;.;.;.;.7.+.7.e.*.' ] E s.1X<X<X8X*X*X8X8X8X8X",
"iXiXiXXXXXV.6.>.o.o.w.0... ...X. . . .0.0...+. ...=. .;.:.:.0.q.:.:.0.| T ` ] $.Z.=X5X&X&X}.OX3XiXiX",
"iXiXiX4X$X(.K F W.W.F.F./.R.E.E.E.E.E.T.S.W.Q.Q.Q.E.E.W.L s s s s d { ] ` [ ! Q P #.R.wX|.[.OXrXiXiX",
"#X#X8XrX}.iXr.J 6X`.l 2 U.rXiXrX6X6X7XG # b.rXiXiXiX7X7Xf.% k k h 1 p _ ( ^ I I ^ w f E.1X8X1X5XqX8X",
"[.[.:XrXiXrXH J iXI.# O H.wXqXiXiX8XrXN . x.rX5X5XrX5X5Xg.- j x k 7 p ( R Q Q ! R E E 1.5XiX5X&X}.}.",
"$X$X$X-XrX7Xt.S ,XrXI.P.0X2XwXiX0XrX6X{.m.rXrXiXiXqXrXrXJ % z h 2 1 e / R Q Q ~ ! ! ! W R.5X8X:X}.}.",
" X*X&XrXwXrXd.# _.8XiXrX8XiXiXiXqXiXiXqXrXiXiX0X2XrX6X_.5 3 x j j 7 t E R Q R R Q I ^ q N.5X#X[.}.}.",
"wXwX2X2X[.0Xy.# G 6XrX2X3X0XrX8XrX{.Y.iX8X3XwXwX2X6X7XJ & 3 l h k B t / R Q ! Y I I Y q 5.wX@XwXiXiX",
"rXrXiX&XoXiXt.; 2 J ,XiXiXqXiX6X).S D ^.iXrXrXiXiX4Xt.- c z g j j 1 y a R Q ! Q R R ` R p.1X.XiXiXiX",
"rXrXiX<X{.,Xd.% n = Z k.K.K.J.h.v > ; n f.J.).K.v.S % c n j j h 2 7 e / R ~ Q Q R R Q i i.=X*XiXiXiX",
"8X<X<X8X8X6Xt.: j n > % : 4 : # 2 j l > > : , : = , v j > 2 x j x 7 e / ~ ~ I Q Q Q Q q p.5X*X8X<X<X",
"}.&X.X5XiXrXd.= n j l j 2 j j l j h j j j 2 3 v 3 3 2 2 l j h h k 7 r i ~ Q Q Q Q Q Q q p.5X*X}.}.}.",
"{.}.}.qXiX6Xh.- j j j h j j h j j j j j j l 3 2 2 x j 2 j j j n 2 M e ) R ~ Q Q Q Q Q q p.5X<X}.}.}.",
"4X<X<X8X<XrXh.# j j j j j j j j > j j n 2 j j l j j j j j j j > 2 8 e u ~ Q Q ~ Q Q Q q p.5X<X2X<X8X",
"6XrXiX<X}.>XJ.& c v j v j j z j n j > j 2 j 2 j j > j n j j v c b $ p E R Q Q I Q Q Q q i.=X@X0XiXiX",
"rXiXiX@X}.{.7Xd.% , 2 , j l h j j j j j j j j j j j 2 3 2 2 2 : & 4.a R ~ Q Q Q Q Q ! u i.=X<XiXiXiX",
"iXiXqX1X.X$X>X7Xk.Z , v 2 j j j h j h 2 2 j j 2 2 j j j j j l C b.5XB.P Q ~ Q Q Q Q ! u i.5X<XwXiXiX",
".X}.}.8XiXiX2X}.rX].H.+ o X X X . * U.Y.P.L.H.).j.= 3 j 3 4 : c.6X}.3XS.{ P I U I I Y w a.qX1X.X.X}.",
"}.}.}.8XiXiX8X}.}.8X:X+       . . $ iXiX1XqX$XrXv.- c j v c = c.iX}.}.1X/.D.5.3.1.<.2.1.S.5X2XOX}.}.",
"}.}.<X8XiXiX8X}.}.}.].o o o       @ 8XiX}.}.%X7Xn.= v > j j ; v.7X4X}.}.2XrX7X2X2X:X7X0XiXiX5X|..X}.",
"8X8X8X8X8X8X8X8X8XiX'.+     o     * }.8X2X8X>X6Xz.# b 3 4 b % c.7X:X4XiX<X$X8X5X5X1X8X8X}.}.7XrX8X8X",
"iXiXiX<X}.}.8XiXiXwX}.P.L.Y.Y.Y.Y.L.}..XrXiXiX<X~.I.U.~.^.Y.U.~..X1XiXiX2X}.}.}.iXrX5X1X.X.XOX0XiXiX",
"iXiXiX8X}.}.8XiXiXiX}.8X8XiXiXiXrX<X$X<XiXiXiX8X<X<X2XiXiXiX@X@XOX2XrXiX8X}.}.<X6XrXrXOX{.}.@XiXiXiX",
"8X8X8X8X8X8X8X8X8X8X<X<X}.<X8X2X:X7X:X8X7X8X8X2XOX<X<X<X<X2X8X}.8X8X8X8X1X1X1X.X8XqXrX8X<X<X8XrX8X8X",
"$X}.$X8XiXiX8X}.OX}.iXiXiX<X].}.<XqXiXrX&X&X}.rXiXiX8X}.}.}.iXiXiX8X$X{.<XiX0XiX:X}.{.8XiXiXrX}.}.}.",
"}.}.}.8XiXiX8X}.}.}.iXiXiX8X}.}.8XiXiXiX}.}.}.8XiXiX8X}.}.<XiXiXiX8X}.}.8XiXiXiX}.}.}.8XiXiX8X}.}.}.",
"}.}.}.8XiXiX8X}.}.}.iXiXiX8X}.}.8XiXiXiX}.}.}.8XiXiX8X}.}.<XiXiXiX8X}.}.8XiXiXiX}.}.}.8XiXiX8X}.}.}."
};
