/* XPM */
static char *_164625022ad4e2dd6c586f3e8689181EYcOwM0JZvXHo0wt[] = {
/* columns rows colors chars-per-pixel */
"50 50 228 2 ",
"   c #020202",
".  c #02060A",
"X  c #0A0D12",
"o  c #071419",
"O  c #1B1B16",
"+  c #1E1E1C",
"@  c #181C1A",
"#  c #211B17",
"$  c #221D1D",
"%  c #2A1B1C",
"&  c #281617",
"*  c #17231D",
"=  c #1C221D",
"-  c #1B2319",
";  c #22211E",
":  c #28201D",
">  c #1E1E22",
",  c #0E1F27",
"<  c #231E21",
"1  c #291E23",
"2  c #07242A",
"3  c #162122",
"4  c #1D2322",
"5  c #1E2821",
"6  c #1D242A",
"7  c #1D2B2C",
"8  c #152628",
"9  c #052C36",
"0  c #0B2C36",
"q  c #062E3D",
"w  c #0B2D3B",
"e  c #072533",
"r  c #182C36",
"t  c #04323E",
"y  c #0B323D",
"u  c #1B3436",
"i  c #13333C",
"p  c #1C353B",
"a  c #1B3B3B",
"s  c #183938",
"d  c #212021",
"f  c #23242B",
"g  c #222A2C",
"h  c #29272A",
"j  c #33272C",
"k  c #232631",
"l  c #232839",
"z  c #292A35",
"x  c #352C34",
"c  c #223A3D",
"v  c #253538",
"b  c #35363E",
"n  c #35383E",
"m  c #383539",
"M  c #2E302F",
"N  c #7F021B",
"B  c #5D122B",
"V  c #620E28",
"C  c #7D0723",
"Z  c #631532",
"A  c #6C152E",
"S  c #4A2B33",
"D  c #6F203F",
"F  c #13413E",
"G  c #042E42",
"H  c #0A2F43",
"J  c #043342",
"K  c #0B3443",
"L  c #0D3A43",
"P  c #0C3749",
"I  c #133443",
"U  c #1D3441",
"Y  c #143D45",
"T  c #1A3C44",
"R  c #1A3E4C",
"E  c #163B4B",
"W  c #1B3E52",
"Q  c #153E53",
"!  c #223341",
"~  c #243C47",
"^  c #363B42",
"/  c #223E52",
"(  c #263E58",
")  c #144345",
"_  c #1A4445",
"`  c #154A46",
"'  c #15444B",
"]  c #1B444C",
"[  c #154A4C",
"{  c #1B4B4B",
"}  c #1A4A45",
"|  c #1B544E",
" . c #16534B",
".. c #0D4555",
"X. c #164451",
"o. c #1C4453",
"O. c #154D52",
"+. c #1C4C52",
"@. c #1C4B5B",
"#. c #1E445B",
"$. c #155253",
"%. c #1B5353",
"&. c #1D5756",
"*. c #0D4044",
"=. c #22454B",
"-. c #224C4D",
";. c #274949",
":. c #35454B",
">. c #22524E",
",. c #234453",
"<. c #224C52",
"1. c #244D5B",
"2. c #274A58",
"3. c #235254",
"4. c #285354",
"5. c #285559",
"6. c #34565B",
"7. c #334A56",
"8. c #2E5962",
"9. c #3A5A65",
"0. c #3A6169",
"q. c #3F6670",
"w. c #5B4957",
"e. c #4F585C",
"r. c #634C54",
"t. c #44645F",
"y. c #43626A",
"u. c #58656B",
"i. c #556C78",
"p. c #597279",
"a. c #4F6C70",
"s. c #76757E",
"d. c #6B6B72",
"f. c #575364",
"g. c #84021B",
"h. c #8E011B",
"j. c #810217",
"k. c #94011E",
"l. c #920014",
"z. c #8D0223",
"x. c #870728",
"c. c #920223",
"v. c #990422",
"b. c #98032A",
"n. c #87182B",
"m. c #97122D",
"M. c #8C1D3B",
"N. c #A90A29",
"B. c #B30E28",
"V. c #AB1127",
"C. c #A40E31",
"Z. c #A81637",
"A. c #9C243F",
"S. c #BA373D",
"D. c #B10A1E",
"F. c #C91B32",
"G. c #CE2E38",
"H. c #E53D3B",
"J. c #EC3D3E",
"K. c #EB3A3B",
"L. c #F23D3D",
"P. c #FA393C",
"I. c #EB413C",
"U. c #E6453C",
"Y. c #F0453E",
"T. c #892843",
"R. c #982F4D",
"E. c #B33943",
"W. c #AA314F",
"Q. c #DC3B42",
"!. c #D73C42",
"~. c #D12F47",
"^. c #EC3E43",
"/. c #EB3B46",
"(. c #F33E43",
"). c #F33F4B",
"_. c #87536A",
"`. c #A6556B",
"'. c #897077",
"]. c #AA6577",
"[. c #B4647C",
"{. c #9E4D4F",
"}. c #CE4E54",
"|. c #EC4144",
" X c #EA4249",
".X c #F34144",
"XX c #EE4258",
"oX c #ED6F73",
"OX c #EE7373",
"+X c #F17276",
"@X c #F47578",
"#X c #EA6E6D",
"$X c #697987",
"%X c #7A7D85",
"&X c #AB7386",
"*X c #D77E80",
"=X c #6B838D",
"-X c #74898F",
";X c #768992",
":X c #79939E",
">X c #7693A3",
",X c #89959C",
"<X c #93878B",
"1X c #B48393",
"2X c #889AA3",
"3X c #9AADAE",
"4X c #85A4AB",
"5X c #B2B5BC",
"6X c #BAAFBD",
"7X c #D5878B",
"8X c #E09389",
"9X c #ACBCC4",
"0X c #BDD5D8",
"qX c #B3CBD4",
"wX c #D9D3D6",
"eX c #C6DDEB",
"rX c #DDE6EA",
"tX c #E7E6E7",
"yX c #F7E5E5",
"uX c #E9F2F6",
"iX c #F5F5F6",
"pX c #F6FBF7",
"aX c #FAFAF7",
"sX c #F5FAFC",
"dX c #FCFCFC",
"fX c #F6F6F9",
"gX c #EEEFF1",
"hX c #F1D9E6",
/* pixels */
"; % d 3 + = = 1 > d < 1 1 1 f > d + < % 1 4 > 1 1 1 f $ d $ 1 1 d d > 4 d < d < 3 = 5 * > > 4 1 d d ",
"= % d 4 < ; 4 < * = * = = - * - = * * ; - * * = * * * - = - 5 5 = - - = = - = - 1 % $ ; 1 f 4 d d d ",
"* $ d d 1 d 6 > # $ O + + $ : # d + d $ + + ; O ; $ d $ $ $ $ @ O : O d $ $ $ + < < + 4 1 < = + d d ",
"* < > d % f p p u p s s a a c p v c r p c u u c u p c u u u u u s ~ p u u u u a s a a a 4 + = 1 d d ",
"= 1 > d $ 7 } +.%.$.$.$.$.$.$.[ +.+.%.$.O.+.%.$.%.O.%.[ $.%.&.%.[ $.O.$.$.$.&.%. .%.%.>.7 4 = h d d ",
"+ 1 = 4 $ 8 [ .._ { ] [ [ [ { ` { { [ %.{ ] =.{ +.] +.` +.{ { { { { { [ ` ` { { { ] ' -.6 ; @ > 4 d ",
"+ d + 4 $ 6 ] ..F ) ) ) ) ` { ` ` _ ) { a ~ o :.o.E ' ) { ) Y <.p.u 4X_ _ _ _ s R R Q ] 6 : = < d d ",
"d d + 4 < k ,.Q [ +.] ' ] [ %.O.%.+.) { a   X M 2.W o.[ 3.] 4.i., u =X<.+.+.+.) ] o...@.6 $ + f d d ",
"= + 1 = $ 4 ` ) [ +.' ' R _ ` [ ] ` { c .   X v ,.R ] ` <.6.y.0 K i =X{ [ ] <.` o.E R [ 6 $ : = d d ",
"; + 1 = < 6 { ' ` +.' ' R _ ] ` [ ] a       X v &.[ [ [ 0.0.y L K i -X{ [ { -.) o.R ,.| 6 + : 4 d d ",
"; d 1 = < g { +.{ +.[ ' ] o.<.{ <.a         o ^ 5.{ 5.6.9.i I w J i ;X` { <.5.' ' R <.| 7 + $ 4 d d ",
"d + 1 + $ 6 { X.F ` ) L L Y ] ] ~ o o X o o o ~ 3.-.4.6.T y y K K i ;XY ) ) ] L [ _ ]  .4 + $ 4 d d ",
"4 + 1 + $ 4 [ ' { | { { <.2.2._ w y w y t L w i I Y L t t t J J K y =X] o.] <.3.3.] {  .g ; d 4 d d ",
"4 + d 4 $ 6 { X.] ) ` <.2.,.R y y K J J P J J t H q L K q K K I K i $Xo.] _ -.+.+.] <.| g ; < 4 d d ",
"4 4 d 4 $ 6 +.@.Y ) ] <.T y w t K t K H I H K t K J J K K K q H K I $Xo.o._ { ` { _ -.| g + $ 4 d d ",
"d 4 1 = $ 6 +.@.] +.+._ i i I t J t K y y y y L t K K q K J K K K i $X1.1.o.{ { +.] <.| g + d 4 d d ",
"+ h ; * 4 4 ] W ) <.2.q G G G J J J J t J J J t t t J t t J J J 9 z D T.`.<Xt.] =.] -.{ f = $ < d d ",
"4 < % + O d ` [ ;.e.b b ^ n n n b b b n n n n b b b b ^ b b b b m S n.Z.C.`.s.) / _ ] -.f < < 4 d d ",
"= 4 4 5 d f 7.&XQ./.(..XI.U.Y.L.(..X.X.X.X(.(..X(.(.(.(..X(.(..XXX X/.F.N.m.[.s.,.o.+.{ f > $ 4 d d ",
"d < 1 < % 6 -.*XQ.).(.(.^.^.^./..X.X.X^.^.^.^.|.(.(.^.^.^.(.^.(.H.H.^.G.B.V.W.f./ R o.{ f = $ d d d ",
"; 3 < = ; k -.8XG.|.J.K.L.L.J.(.|.^.J.J.J.J.J.J.H.J.^.J.J.J.J.J.L.P.(.F.B.N.W.r.,.,.2.<.g = $ $ d d ",
"; > 1 = $ v 5.7XQ.^.|.U.I.I.|.|.^.^.^.|.|.|.|.|.|.^.^.^.^.|. X|.I.H.Q.~.N.C.W.r.+.{ <.>.g = $ + d d ",
"; f $ + % 3 { 7XQ.).K..XL.(.H.|.J.J.L.L.L.J.J.I.L.K.J..XJ.J.|.^.^. X/.F.B.m.W._.:.] ` ` 4 = $ d d d ",
"- > 1 ; < f -.'.E.}.@X#X#XoXOX+X+X+X+XOXoX#XOXOX+XoX+XoX}.E.E.E.E.S.G.F.D.V.C.R._.f.6.| g $ $ d d d ",
"< + $ * + 4 { 5.d.<XyX5X%X6XhXyXyXyXyXtX<X'.wXyXyXyXyXyX<Xn v c ! S M.Z.C.b.z.z.m._.d.4.7 + @ < d d ",
"< + < * > 6 { 8.p.,XuX;X2 ;XuXpXdXdXsXuX:.k 5XdXdXdXdXsX2Xi y J J l Z m.c.v.h.k.g.n.].e.7 + : f d d ",
"d 4 1 3 > 6 { 8.i.;XuX9X$X5XiXaXdXaXdXiX,X%XwXsXdXdXiXdX,XI K J t r Z x.z.c.c.c.v.k.M.<Xv = - = d d ",
"d d < = < 6 ] 1.u.u.gXgXtXfXpXpXdXpXdXdXgXtXdXdXiXdXdXuXp.0 J J y z A x.z.c.z.c.k.c.C 1Xx d = > d d ",
"+ + < 4 < f ] 1.u.c 3XsXdXiXdXdXsXdXtXtXdXaXaXdXaXpXsX3X=.9 K t P l Z x.z.c.h.k.g.h.x.].x < d < d d ",
"+ = < = < f ] 1.y.9 9.9XsXdXaXdXsXrXu.u.rXdXdXsXdXdX9X7.i I K H J l B x.z.c.c.c.z.c.N ].h + < < d d ",
"4 4 < = < f { 1.i.9 K ] $XqX0X0X4X9.q K 6.2X0XeX9X=X~ w I K K G y k V x.z.c.c.z.c.c.x.].h 4 = d d d ",
"4 4 $ = d g { 5.u.0 t K w 0 T i e w t K q w I I y w i y q J K P K l Z x.z.c.c.c.c.k.N ].M d @ = d d ",
"= 4 $ = d f { 5.i.0 K K P y y L K K q K K K y y t t t t K K q J y z B C z.b.c.k.c.c.C [.M = + d d d ",
"d d < = + 4 ` 3.p.e K J J J t J P K K t P K K t t L K t q K K Y J z B x.c.z.c.k.v.k.g.[.M + + f d d ",
"+ + 1 = d g 3.8.p.0 K K y y K P H G K q I K K t L K J K K K K q I z V x.c.b.c.c.c.h.C ].M 4 < + d d ",
"d d 1 = + f { 5.:XT w I w I H H P J K q K q y K K K t K K K y w r x A x.c.c.z.c.c.c.x.[.M 4 d d d d ",
"d d 1 = $ f { 1.i.a.R y i 9 L J K J K t q J K J t K K t t y w I =.s.T.z.c.c.g.c.z.v.g.].m * + 1 d d ",
"> + 1 = < k +.1.-.0.q.=.0 2 2 2 2 2 0 *.P Y I Y ' t q y K y 0 9.q.p.&XR.z.k.h.h.h.l.j.].j @ ; $ d d ",
"> = $ = O 6 ) E F ) ' T 8 X   . . . 8 { ] o.R ] +.I q K y y w :X' ` y.s._.W.W.W.T.A.T.1Xj d d d d d ",
"4 4 d 4 < k ] o.{ %.' ] 8 .         > { ' X./ ' ,.I w w K L e :X{ %.-.6.a.u.e.w.w.w.w.d.v 4 : O d d ",
"= = < 3 < f ] o.[ +.{ T 8 .         8 ;._ ,.R ) / I w y 0 i e >X} { { { { { 3.] ( / ] =.f f d + d d ",
"d < 1 = : 4 ` [ [ { ] o.E w i i s 0 _ { Y o.R o.] ) ) _ { ] Y 9.' [ [ ' ` { 1.) o.] [ { 6 $ = $ d d ",
"< < 1 = : f } { { -.] o.o.X.+.+.{ { >.%.' o.] <.3.{ { { 3.] ] ] o.1.@.{ ] <.3._ +.] | >.7 < f d d d ",
"* = d = : f { <._ _ _ R ] _ ` ) _ _ { { Y ] T _ { { { _ ] R E W _ ] _ _ _ _ -.a / U =.;.f > 4 $ d d ",
"- = d 3 > 6 [ @.Y o.' R ] ] <.{ o.+.] ] R ] ' { ` +.+.' X.o.o.W ) { { { ' ' o.] o.W @.4.7 + - + d d ",
"% $ 1 3 > 6 [ @.Q 1.#.#.o.<.3.{ @.@.X.o.,.,.@.5.3.3.3.] o.o.1.' { %.+.1.@.X.#.@.O.@.&.3.7 d = : d d ",
"$ $ 1 = d d F T r ! U ! U p c a ! T i ! ! U p c c c c c p r c u u a s a p u p p i c a a 4 d + 1 d d ",
"5 3 > - % & 5 + # $ @ + + O ; $ # - O $ $ + - - $ O $ < < < $ $ O d + + + # % # & % + = % d 3 < d d ",
"d d d d d d d d d d d d d d d d d d d d d d d d d d d d d d d d d d d d d d d d d d d d d d d d d d ",
"d d d d d d d d d d d d d d d d d d d d d d d d d d d d d d d d d d d d d d d d d d d d d d d d d d "
};
