/* XPM */
static char *d6b7146412a84144ea6084616d1d4b8aL3xqVhuI1VJC7OtH[] = {
/* columns rows colors chars-per-pixel */
"50 50 240 2 ",
"   c #01010D",
".  c #000A0F",
"X  c #020312",
"o  c #020E17",
"O  c #06151A",
"+  c #141B15",
"@  c #1D1B16",
"#  c #151C1C",
"$  c #1D1D1D",
"%  c #171519",
"&  c #221C1C",
"*  c #291D1D",
"=  c #23161E",
"-  c #16221D",
";  c #1D221D",
":  c #1D2216",
">  c #0E211F",
",  c #21211D",
"<  c #202416",
"1  c #081B24",
"2  c #131D23",
"3  c #1C1D23",
"4  c #221E22",
"5  c #2A1D24",
"6  c #231F2B",
"7  c #381D26",
"8  c #0B2B2D",
"9  c #072629",
"0  c #142324",
"q  c #1D2223",
"w  c #1C2925",
"e  c #14252C",
"r  c #1C242B",
"t  c #1A2B2D",
"y  c #142B2C",
"u  c #042C35",
"i  c #0B2B35",
"p  c #052D3B",
"a  c #0C2E3B",
"s  c #0A2634",
"d  c #1B2630",
"f  c #122C35",
"g  c #1B2C32",
"h  c #132D3B",
"j  c #1B2C39",
"k  c #04333C",
"l  c #0B323C",
"z  c #093638",
"x  c #1C3435",
"c  c #13333C",
"v  c #1D353A",
"b  c #133A3E",
"n  c #1C3A3C",
"m  c #183535",
"M  c #12312F",
"N  c #212122",
"B  c #2B2323",
"V  c #24232A",
"C  c #2A242A",
"Z  c #252A28",
"A  c #37282B",
"S  c #222432",
"D  c #252A37",
"F  c #24353B",
"G  c #223A3C",
"H  c #273739",
"J  c #303237",
"K  c #74001E",
"L  c #6C0A1E",
"P  c #5C162D",
"I  c #5D1334",
"U  c #550D2A",
"Y  c #780B26",
"T  c #6E142A",
"R  c #422C2E",
"E  c #4A252B",
"W  c #4A2D33",
"Q  c #462C33",
"!  c #483334",
"~  c #42302E",
"^  c #712735",
"/  c #18403F",
"(  c #25423D",
")  c #4A413C",
"_  c #063341",
"`  c #0C3443",
"'  c #0C3A42",
"]  c #0B3746",
"[  c #123542",
"{  c #193643",
"}  c #143B43",
"|  c #1B3C44",
" . c #153F4A",
".. c #1B3D4A",
"X. c #0F2E40",
"o. c #223C44",
"O. c #2B3C42",
"+. c #243F4A",
"@. c #2D3C4A",
"#. c #343D44",
"$. c #252740",
"%. c #483D4A",
"&. c #543543",
"*. c #762942",
"=. c #763547",
"-. c #0C4545",
";. c #0E4748",
":. c #134345",
">. c #1B4345",
",. c #15444B",
"<. c #1C444B",
"1. c #144A4B",
"2. c #1C4B4D",
"3. c #174946",
"4. c #1C4C51",
"5. c #194852",
"6. c #1D5154",
"7. c #234346",
"8. c #22444C",
"9. c #2A444C",
"0. c #234B4C",
"q. c #2B4B4D",
"w. c #234845",
"e. c #34474A",
"r. c #24514E",
"t. c #30504D",
"y. c #224552",
"u. c #2C4551",
"i. c #244C53",
"p. c #2B4C53",
"a. c #284E58",
"s. c #334B56",
"d. c #235154",
"f. c #2B535A",
"g. c #275359",
"h. c #37555A",
"j. c #365961",
"k. c #2C5E63",
"l. c #346066",
"z. c #4C4E53",
"x. c #684A59",
"c. c #764A5A",
"v. c #4D5D6D",
"b. c #6F5A66",
"n. c #456973",
"m. c #54757C",
"M. c #4F626E",
"N. c #646A7A",
"B. c #736C73",
"V. c #85011C",
"C. c #8C001A",
"Z. c #93011C",
"A. c #9C001D",
"S. c #8C0423",
"D. c #840D2B",
"F. c #860526",
"G. c #930122",
"H. c #9C0123",
"J. c #9C032B",
"K. c #95082B",
"L. c #881628",
"P. c #871033",
"I. c #931133",
"U. c #A50829",
"Y. c #B01333",
"T. c #93203F",
"R. c #B12F3D",
"E. c #EC3B3E",
"W. c #F13D3E",
"Q. c #C51834",
"!. c #EA4337",
"~. c #F3413A",
"^. c #8B3651",
"/. c #AE384A",
"(. c #D12A44",
"). c #EB3D44",
"_. c #EB3948",
"`. c #F43B43",
"'. c #F53A47",
"]. c #EE3D54",
"[. c #AF4A51",
"{. c #8E5467",
"}. c #AB5D73",
"|. c #8F7675",
" X c #A76775",
".X c #B16778",
"XX c #AE797E",
"oX c #9A5359",
"OX c #C54A4C",
"+X c #DB4347",
"@X c #CC4D58",
"#X c #D34B56",
"$X c #CD5156",
"%X c #C85758",
"&X c #D05558",
"*X c #E44444",
"=X c #EB4245",
"-X c #E7454A",
";X c #E54355",
":X c #F34147",
">X c #E7756C",
",X c #E67677",
"<X c #D15F6A",
"1X c #80857F",
"2X c #5D7B86",
"3X c #586F81",
"4X c #787384",
"5X c #9F7B82",
"6X c #AB7789",
"7X c #EC7486",
"8X c #6A8993",
"9X c #7B9499",
"0X c #698B8D",
"qX c #789CA3",
"wX c #5D8A8D",
"eX c #8E878D",
"rX c #B08B8E",
"tX c #91A5AF",
"yX c #B1B3B8",
"uX c #C5928D",
"iX c #C6B5B0",
"pX c #B6BDC3",
"aX c #AEC7CF",
"sX c #FDD8D6",
"dX c #F6C9C6",
"fX c #FFE1DF",
"gX c #DBDDE4",
"hX c #CBDFE6",
"jX c #F4DEE4",
"kX c #D5EBEE",
"lX c #FDE7E6",
"zX c #F7F6ED",
"xX c #EEFBFF",
"cX c #EAF7F7",
"vX c #F4F5FC",
"bX c #F4FBFE",
"nX c #FDFDFE",
"mX c #F9FAF5",
"MX c #ECEDED",
"NX c #D3D6DF",
/* pixels */
"; q $ N $ @ B , ; ; @ : Z @ * @ : ; ; ; ; ; N @ & & = B 4 4 4 N N & * * * * & * N N $ $ , : @ : : ; ",
"N ; $ N N , N + + w q + - ; J 4 Z + Z w ; w # q N 3 C $ C 3 V q q q , , , & & 4 N q 3 $ q , : , $ ; ",
"N $ $ N N N Z # 0 - 0 0 w 0 w O # w # O 0 w 0 Z 2 Z # q # r 0 0 0 0 0 0 - # # 0 w 0 2 q q q ; , $ ; ",
"$ 4 N 4 4 q J H F m n n m 8 x O.O.F F x x v M G F F F x F x n v n n n n G v v G v x v D r q N N ; ; ",
"4 N N 3 V d e.e.9.p.p.i.0.0.w.>.j.8 p.h.0.r.>.0.0.0.p.0.d.2.0.2.2.2.2.r.0.0.0.0.p.0.p.9.g 3 4 4 N ; ",
"N $ 4 # S D u.+.a.<.:.2.4.2.:.i.>.f.<.<.4.,.4.2.,.0.>.i.:.r.,.3.1.1.1.1.1.3.;.1.2.<.y.+.d 3 4 4 q ; ",
"& $ N % d d u.{  . .' 1.-.z 2.qXc m.f.} <. .2.b | <.8.9 c n 0.:.2.1.1.1.1.;.-.-.;.' | | e 2 N & N ; ",
"< , Z # r e u.y.,.5.,.5.6.6.2.wXc u n.j.} f.:.<.| q.m O o n 9.>.i.4.2.2.1.;.-.-.6.,.<.8.g r V $ N , ",
"< : , - 0 e 9... .5.,.4.,.<.>.wX' u ' g.g.6.2.,.b 0.| . . O m p.>.4.4.,.,.1.1.-.1.,.:.7.e 0 4 N $ ; ",
"< : ; q 0 g p.8.,.,.,.g.4.0.8.0Xl ' k :.k.k.1.2.<.h.v O   . o f 9.| } <.<.' ' 1.6.2.0.q.t 0 $ & $ q ",
": : ; - 0 M q.8. .:.} i.<.8.7.8X{ a i l >.j.j.s.u.h.F 2       o o.9.p.0.<.<.2.2.4.<.<.9.t q $ & , q ",
": @ ; - 0 y q.>.:.:.:.i.<.| o.8X{ a a a u >.j.s.u.u.O.2 2 O O 1 1 c 9.>.b b } ' 2.,.>.7.0 - & , , q ",
", : N - 0 t q.0.2.4.2.g.<.8.8.8Xi } ` k l k k } } { { i h s f i h c <.f.f.0.2.i.4.<.<.7.0 - $ , $ $ ",
"4 & N q w g t.0.2.6.2.d.>.<.9.8X[ ` _ k _ k k k k l p [ a } l l l a l  .y.i.4.5.<.,.8.q.t q : < $ $ ",
"5 4 N 3 0 t q.0.:.2.1.2.,.y.y.2X{ p _ ] p _ ;.k k k p ' p ` k l k k k u l 5.4.,.,. .<.9.t q ; , $ N ",
"N N N 3 0 t q.0.:.2.<.0.9.z.%.4Xf { [ l ` _ k k ' k [ l ` p ` l k k l l z z  .i.y.y.8.9.e - $ , , q ",
"0 - N $ N r 7.<.-.4.| v.rX{.T ^ C e 8 f c f i f f i f f h f f f c 8 8 z 8 9 m u.s.o.<./ t # & < $ q ",
"- - , & N r 9.2.,.i.O.B.{.L.R.L.^ W W Q R R R W W Q Q W W Q Q W W R ~ ! ! R W &.x.%.s.m w - $ @ ; q ",
"; ; * = 5 r 7.<.<.{ 4X5XT.L.R.+X#XOX$X&X$X$X$X&X$X$X$X$X$X$X$X&X#X@X$X$X$X$X#X@X@XoX|.z.Z q q w ; ; ",
", & * = N r w.<.8.@.b.{.T.Y.(.].).`.:X:X=X).).).).).).).).).).).'.'.).E.E.`.`._.;X@XuX! B # q r 3 $ ",
"$ & 5 & Z t r.r.o.#.c.^.K.Y.Q.].'.`.)._._.).)._.).).).).).).=X).`.`.~.!.!.~.~.W.*XOXuX! C V V 3 4 , ",
"; & 4 $ w y w.w.O.%.^./.Y.Y.(._.].].]._.-X-X=X).).=X=X).=X=X*X=XE.`.=X!.!.!.~.E.*XOXuX) A V V 3 N , ",
"q ; N @ 0 8 w.w.H &.}./.U.Y.Y.;X+X*X+X+X+X+X+X+X*X*X*X*X*X*X*X*X_.].;X-X*X*X*X*X+X[.rX! B $ 3 3 N , ",
"- - q - w M t.e.x.{.^.I.Y.U.R././.[./.R.[.%X>X,X>X>X>X>X>X>X>X,X7X7X7X,X,X,X,X,X[.oX|.J C N V N $ & ",
"- ; w + w Z e.B.c.^ D.Z.U.U.I.^ E R ! A A eXfXfXlXsXsXdX|.XXlXsXfXlXlXsXiX|.iXlXeXb.h.( w 3 C $ , , ",
"- - Z ; $ C b.b.^ L V.Z.H.G.L.P C f f m n 9XbXbXnXnXzXyXA z.MXnXnXMXmXMX1X- 0XkX9Xm.h.7.r 3 Z ; $ & ",
": $ N N = A 5X=.T V.H.H.H.S.L.P S l u a c 9XbXcXvXnXvXgXB.eXvXmXcXmXmXzXiXB.pXcXeXN.h.9.S # q - ; , ",
"B & & & 5 Q 6XT D.Z.U.A.G.V.Y P S [ l a i 2XkXxXbXnXvXnXgXvXnXnXcXzXzXzXmXjXvXxXN.N.s.@.S 3 0 - ; , ",
"B & , % B E .XY S.Z.A.A.G.F.D.I D s h c f 9.tXnXbXnXnXnXnXnXNXMXmXmXnXnXmXnXxXtX@.v.a.8.r 3 0 - - $ ",
"& & Z # B E  XY S.Z.H.Z.K.D.P.I D s h h h f z.yXbXvXbXbXnXgXN.M.kXbXbXMXbXxXaXh.f v.g.<.t q q # $ $ ",
"@ , w - N A  XY S.C.Z.C.F.Y Y U $.` _ p ` l l 9.9XaXhXaX9Xj.9 c j.tXaXhXaX2X| [ s n.d.<.g N $ $ q q ",
"& B # - q A XXL F.C.G.V.F.Y P.I D ] _ ] ` p l l 9 c c c l u ' p p ` ` [ l p p l i n.4.0.D 4 $ , 3 q ",
"= 5 N $ ; A  XL F.G.S.S.F.F.Y P D s X.a ` ` _ _ ` p ] a l } p l _ ] [ ` ` [ ] ` h v.j.p.2 C $ ; q q ",
"5 C C N ; A  XY K.G.S.S.K.K.Y U J [ { { a p p ] ] _ ] _ _ ] a ` ] ] ` a l l _ a a 3Xi.8.r V $ @ q q ",
"$ $ - - ; A  XY V.H.J.J.G.S.Y P 6 a i l a  ._ p ] _ ' _ _ ` l ' k k k k l ' ' ' s 8Xf.q.D $ N N ; 3 ",
"- - - ; ; R .XY J.U.H.G.J.K.D.I J c u l p ` p ' k k _ k k k l ` k k z l k u u k { wXf.0.S % $ , ; 3 ",
"; , , @ & E .XK G.G.H.J.J.S.D.*.B.9.c l [ l u ' k k k l l l l l l l c c z u z ,.n.m.4.w.r 3 q ; N N ",
"$ : < @ & E  XT P.I.K.F.K Y ^.6XN.h.v.i { [ u u `  .} } } } } a 1 1 1 9 8 z 0.k.l.f.1.0.r Z q ; ; 3 ",
"; ; N N B A 5X=.*.*.=.^.{.{.b.b.F s.qXi i i c l } y.<.....8.8.f o X X   o 9 { 0.| { :.2.e # # # $ $ ",
"N $ - q ; ; |.z.x.x.x.x.b.N.z.o.u.+.9X1 { a c a [ y.......y.8.s X       o f | <.a.a.,.>.g q Z q q N ",
"$ N ; # w w H e.#.#.#.e.q.<.3.6.y...8X9 ..u l u [ .. ...y.<.y.h X X X   o 8  .<.y.<.,.<.e V q q $ $ ",
"* 4 4 # w y w.w.>.| 7.0.2.;.;.1.2...n.l ,.g.,.,.,.5.5. .5. .5.{ h j j g m } <.<.i.y.<.8.d V N q N N ",
"5 5 5 3 3 r q.0.<.>.9.p.i.2.2.4.5.,.2.:.:.k.,.5.d.d.6.5.4.,.g.a.<.2.0.0.2.1.1.1.i.y.5.y.S C N N N q ",
"5 4 N N 3 r q.2.:.:.+.8.<.>.>.<.5.,.,.,.-.,.:.2.5.2.,.:.,.' 4.4.,.:.:.3.1.-.-.,.<.<.4.y.S 6 5 N $ $ ",
"q # q 0 0 t p.2.:.:.+.+.8.<.<.8.2.<.:.2.>.b >.d.<.<.<.>.<.} <.<.2.1.,.<.2.:.-.,...8.2.9.r 4 $ N $ $ ",
"q - q - N S t.r.2.0.9.@.9.0.q.p.0.0.b 0.7.7.7.q.t.q.q.q.p.7.9.| 0.0.w.q.q.0.>.<.+.+.8.9.r 4 , , ; ; ",
"; ; ; $ C C H n n v D D v v n v o.G g F x F x H H H H F F j F g F F F H O.H v v F v b G q N ; ; : ; ",
"+ ; $ $ 5 = q # 0 0 3 3 0 0 0 2 0 0 0 # q 0 q q 2 w 0 # 2 2 r 2 r q 3 3 3 0 0 2 r 2 9 y # , : + : ; ",
"; ; N 4 4 4 q q q q q N q q q q q q q q q q q q q 3 q q 3 3 q q q q q q q q q q q q q q q N ; ; , N ",
"N N N N N N N N N N , , N N N N N N N N , , N N N N N N , N , , N N N N N N N N N N N N N N N N N N "
};
